<svg width="720" height="720" viewBox="0 0 720 720" fill="none" xmlns="http://www.w3.org/2000/svg">
<g opacity="0.16">
<path d="M600 300C600 266.863 573.137 240 540 240C506.863 240 480 266.863 480 300C480 333.137 506.863 360 540 360C573.137 360 600 333.137 600 300Z" fill="url(#paint0_linear)"/>
<path d="M240 180C240 146.863 213.137 120 180 120C146.863 120 120 146.863 120 180C120 213.137 146.863 240 180 240C213.137 240 240 213.137 240 180Z" fill="url(#paint1_linear)"/>
<g opacity="0.2">
<path d="M540 600C573.137 600 600 573.137 600 540H540V600Z" fill="url(#paint2_linear)"/>
<path d="M540 540L540 480C506.863 480 480 506.863 480 540L540 540Z" fill="url(#paint3_linear)"/>
</g>
<path d="M240 180C240 213.137 266.863 240 300 240L300 180L240 180Z" fill="url(#paint4_linear)"/>
<path d="M300 180L360 180C360 146.863 333.137 120 300 120L300 180Z" fill="url(#paint5_linear)"/>
<g opacity="0.6">
<path d="M480 360C413.726 360 360 306.274 360 240L480 240L480 360Z" fill="url(#paint6_linear)"/>
</g>
<g opacity="0.3">
<path d="M239.796 359.795C240.022 293.521 293.931 239.979 360.205 240.205L359.795 360.204L239.796 359.795Z" fill="url(#paint7_linear)"/>
</g>
<g opacity="0.6">
<path d="M660 480V420H720L660 360V420H600L660 480Z" fill="url(#paint8_linear)"/>
</g>
<path d="M720 540C720 506.863 693.137 480 660 480C626.863 480 600 506.863 600 540C600 573.137 626.863 600 660 600C693.137 600 720 573.137 720 540Z" fill="url(#paint9_linear)"/>
<path d="M720 240C720 306.274 666.274 360 600 360V240H720Z" fill="url(#paint10_linear)"/>
<g opacity="0.4">
<path d="M600 240H720V120L600 120V240Z" fill="url(#paint11_linear)"/>
</g>
<g opacity="0.3">
<path d="M720 600V720L600 600H720Z" fill="url(#paint12_linear)"/>
</g>
<g opacity="0.5">
<path d="M480 480L480 360L600 480L480 480Z" fill="url(#paint13_linear)"/>
</g>
<path d="M480 360L480 480L360 360L480 360Z" fill="url(#paint14_linear)"/>
<path d="M480 120L600 120L480 240L480 120Z" fill="url(#paint15_linear)"/>
<path d="M360 60L420 60L420 120L480 60L420 60L420 -4.07697e-05L360 60Z" fill="url(#paint16_linear)"/>
<g opacity="0.3">
<path d="M600 120C533.726 120 480 66.2742 480 0L600 5.24537e-06L600 120Z" fill="url(#paint17_linear)"/>
</g>
<g opacity="0.3">
<path d="M120 3.57629e-05C186.274 3.2866e-05 240 53.7259 240 120L120 120L120 3.57629e-05Z" fill="url(#paint18_linear)"/>
</g>
<path d="M720 60C720 26.8629 693.137 -3.8147e-05 660 -3.8147e-05C626.863 -3.8147e-05 600 26.8629 600 60C600 93.1371 626.863 120 660 120C693.137 120 720 93.1371 720 60Z" fill="url(#paint19_linear)"/>
<path d="M360 -3.8147e-05L360 120L240 -4.86377e-05L360 -3.8147e-05Z" fill="url(#paint20_linear)"/>
<path d="M120 -3.8147e-05L120 120L1.04907e-05 -4.86377e-05L120 -3.8147e-05Z" fill="url(#paint21_linear)"/>
</g>
<defs>
<linearGradient id="paint0_linear" x1="588.98" y1="243.673" x2="487.959" y2="252.245" gradientUnits="userSpaceOnUse">
<stop stop-color="#363636"/>
<stop offset="1" stop-color="#565555"/>
</linearGradient>
<linearGradient id="paint1_linear" x1="228.98" y1="123.673" x2="127.959" y2="132.245" gradientUnits="userSpaceOnUse">
<stop stop-color="#363636"/>
<stop offset="1" stop-color="#565555"/>
</linearGradient>
<linearGradient id="paint2_linear" x1="588.98" y1="483.673" x2="487.959" y2="492.245" gradientUnits="userSpaceOnUse">
<stop stop-color="#363636"/>
<stop offset="1" stop-color="#565555"/>
</linearGradient>
<linearGradient id="paint3_linear" x1="588.98" y1="483.673" x2="487.959" y2="492.245" gradientUnits="userSpaceOnUse">
<stop stop-color="#363636"/>
<stop offset="1" stop-color="#565555"/>
</linearGradient>
<linearGradient id="paint4_linear" x1="356.327" y1="228.98" x2="347.755" y2="127.959" gradientUnits="userSpaceOnUse">
<stop stop-color="#363636"/>
<stop offset="1" stop-color="#565555"/>
</linearGradient>
<linearGradient id="paint5_linear" x1="356.327" y1="228.98" x2="347.755" y2="127.959" gradientUnits="userSpaceOnUse">
<stop stop-color="#363636"/>
<stop offset="1" stop-color="#565555"/>
</linearGradient>
<linearGradient id="paint6_linear" x1="476.327" y1="348.98" x2="467.755" y2="247.959" gradientUnits="userSpaceOnUse">
<stop stop-color="#363636"/>
<stop offset="1" stop-color="#565555"/>
</linearGradient>
<linearGradient id="paint7_linear" x1="250.829" y1="356.159" x2="351.878" y2="347.932" gradientUnits="userSpaceOnUse">
<stop stop-color="#363636"/>
<stop offset="1" stop-color="#565555"/>
</linearGradient>
<linearGradient id="paint8_linear" x1="611.02" y1="363.673" x2="712.041" y2="372.245" gradientUnits="userSpaceOnUse">
<stop stop-color="#363636"/>
<stop offset="1" stop-color="#565555"/>
</linearGradient>
<linearGradient id="paint9_linear" x1="708.98" y1="483.673" x2="607.959" y2="492.245" gradientUnits="userSpaceOnUse">
<stop stop-color="#363636"/>
<stop offset="1" stop-color="#565555"/>
</linearGradient>
<linearGradient id="paint10_linear" x1="708.98" y1="243.673" x2="607.959" y2="252.245" gradientUnits="userSpaceOnUse">
<stop stop-color="#363636"/>
<stop offset="1" stop-color="#565555"/>
</linearGradient>
<linearGradient id="paint11_linear" x1="708.98" y1="123.673" x2="607.959" y2="132.245" gradientUnits="userSpaceOnUse">
<stop stop-color="#363636"/>
<stop offset="1" stop-color="#565555"/>
</linearGradient>
<linearGradient id="paint12_linear" x1="611.02" y1="603.673" x2="712.041" y2="612.245" gradientUnits="userSpaceOnUse">
<stop stop-color="#363636"/>
<stop offset="1" stop-color="#565555"/>
</linearGradient>
<linearGradient id="paint13_linear" x1="588.98" y1="476.326" x2="487.959" y2="467.755" gradientUnits="userSpaceOnUse">
<stop stop-color="#363636"/>
<stop offset="1" stop-color="#565555"/>
</linearGradient>
<linearGradient id="paint14_linear" x1="371.02" y1="363.673" x2="472.041" y2="372.245" gradientUnits="userSpaceOnUse">
<stop stop-color="#363636"/>
<stop offset="1" stop-color="#565555"/>
</linearGradient>
<linearGradient id="paint15_linear" x1="483.674" y1="228.98" x2="492.245" y2="127.959" gradientUnits="userSpaceOnUse">
<stop stop-color="#363636"/>
<stop offset="1" stop-color="#565555"/>
</linearGradient>
<linearGradient id="paint16_linear" x1="476.327" y1="11.0203" x2="467.755" y2="112.041" gradientUnits="userSpaceOnUse">
<stop stop-color="#363636"/>
<stop offset="1" stop-color="#565555"/>
</linearGradient>
<linearGradient id="paint17_linear" x1="596.326" y1="108.98" x2="587.755" y2="7.9592" gradientUnits="userSpaceOnUse">
<stop stop-color="#363636"/>
<stop offset="1" stop-color="#565555"/>
</linearGradient>
<linearGradient id="paint18_linear" x1="123.673" y1="11.0204" x2="132.245" y2="112.041" gradientUnits="userSpaceOnUse">
<stop stop-color="#363636"/>
<stop offset="1" stop-color="#565555"/>
</linearGradient>
<linearGradient id="paint19_linear" x1="708.98" y1="3.67345" x2="607.959" y2="12.2449" gradientUnits="userSpaceOnUse">
<stop stop-color="#363636"/>
<stop offset="1" stop-color="#565555"/>
</linearGradient>
<linearGradient id="paint20_linear" x1="251.02" y1="3.67344" x2="352.041" y2="12.2449" gradientUnits="userSpaceOnUse">
<stop stop-color="#363636"/>
<stop offset="1" stop-color="#565555"/>
</linearGradient>
<linearGradient id="paint21_linear" x1="11.0204" y1="3.67344" x2="112.041" y2="12.2449" gradientUnits="userSpaceOnUse">
<stop stop-color="#363636"/>
<stop offset="1" stop-color="#565555"/>
</linearGradient>
</defs>
</svg>
