<svg width="480" height="480" viewBox="0 0 480 480" fill="none" xmlns="http://www.w3.org/2000/svg">
<rect x="479.532" y="240.532" width="337.997" height="340.164" transform="rotate(135 479.532 240.532)" fill="white"/>
<path opacity="0.15" d="M452.154 247.998L400.087 300.065L374.053 326.099L361.036 339.116L354.528 345.624L343.903 348.016L333.279 350.409L326.771 356.917L313.754 369.934L287.72 395.968L231.537 452.151L179.469 400.084L153.436 374.05L140.419 361.033L133.91 354.525L131.518 343.9L129.126 333.276L122.617 326.768L109.6 313.751L83.5668 287.717L27.3834 231.534L80.4798 178.437L107.028 151.889L120.302 138.615L126.939 131.978L137.692 129.457L148.445 126.936L155.082 120.299L168.356 107.025L194.904 80.4767L248.001 27.3804L296.981 76.3608L323.529 102.909L336.803 116.183L343.44 122.82L345.961 133.573L348.482 144.326L355.119 150.963L368.394 164.237L394.942 190.785L452.154 247.998Z" stroke="#009393"/>
<path opacity="0.15" d="M231.536 27.3807L179.469 79.4481L153.435 105.482L140.419 118.499L133.91 125.007L131.518 135.631L129.125 146.256L122.617 152.764L109.6 165.781L83.5663 191.815L27.383 247.998L79.4503 300.065L105.484 326.099L118.501 339.116L125.009 345.624L135.634 348.017L146.258 350.409L152.766 356.917L165.783 369.934L191.817 395.968L248 452.151L301.097 399.055L327.645 372.507L340.919 359.233L347.556 352.596L350.077 341.843L352.598 331.09L359.235 324.453L372.509 311.178L399.057 284.63L452.154 231.534L403.173 182.554L376.625 156.006L363.351 142.731L356.714 136.094L345.961 133.573L335.208 131.052L328.571 124.415L315.297 111.141L288.749 84.593L231.536 27.3807Z" stroke="#009393"/>
<rect opacity="0.15" x="368.575" y="186.138" width="182.161" height="182.161" transform="rotate(135 368.575 186.138)" stroke="#009393"/>
<rect opacity="0.15" x="368.574" y="293.392" width="182.161" height="182.161" transform="rotate(135 368.574 293.392)" stroke="#009393"/>
<rect opacity="0.15" x="239.768" y="368.299" width="91.0804" height="91.0804" transform="rotate(-135 239.768 368.299)" stroke="#009393"/>
<rect opacity="0.15" x="239.768" y="239.765" width="91.0804" height="91.0804" transform="rotate(-135 239.768 239.765)" stroke="#009393"/>
<rect opacity="0.15" x="122.456" y="239.649" width="45.9658" height="45.9658" transform="rotate(135 122.456 239.649)" stroke="#009393"/>
<rect opacity="0.15" x="422.085" y="239.648" width="45.9658" height="45.9658" transform="rotate(135 422.085 239.648)" stroke="#009393"/>
<g filter="url(#filter0_d_6791_36963)">
<g filter="url(#filter1_d_6791_36963)">
<circle cx="239.768" cy="239.765" r="40" fill="white"/>
</g>
<path fill-rule="evenodd" clip-rule="evenodd" d="M225.593 221.16H254.531C255.221 221.16 255.859 221.525 256.204 222.116L264.634 236.591C265.072 237.342 264.942 238.289 264.318 238.898L241.112 261.549C240.36 262.283 239.151 262.283 238.399 261.549L215.225 238.928C214.587 238.306 214.467 237.33 214.937 236.575L223.948 222.07C224.299 221.505 224.922 221.16 225.593 221.16ZM250.795 227.623V231.684H242.551V234.5C248.341 234.801 252.684 236.037 252.717 237.519L252.716 240.607C252.684 242.088 248.341 243.324 242.551 243.625V250.536H237.078V243.625C231.288 243.324 226.945 242.088 226.912 240.607L226.913 237.519C226.945 236.037 231.288 234.801 237.078 234.5V231.684H228.835V227.623H250.795ZM239.815 241.503C245.993 241.503 251.157 240.458 252.421 239.063C251.349 237.879 247.473 236.948 242.551 236.692V239.64C241.669 239.686 240.754 239.71 239.815 239.71C238.875 239.71 237.96 239.686 237.078 239.64V236.692C232.156 236.948 228.28 237.879 227.208 239.063C228.472 240.458 233.636 241.503 239.815 241.503Z" fill="#009393"/>
</g>
<ellipse cx="240" cy="138.5" rx="30" ry="30.5" fill="#D3B25B"/>
<path fill-rule="evenodd" clip-rule="evenodd" d="M229.369 124.314H251.073C251.59 124.314 252.069 124.592 252.327 125.043L258.65 136.08C258.978 136.652 258.881 137.375 258.413 137.839L241.008 155.11C240.445 155.67 239.538 155.67 238.974 155.11L221.593 137.862C221.114 137.387 221.025 136.644 221.377 136.068L228.136 125.007C228.399 124.576 228.866 124.314 229.369 124.314ZM248.27 129.242V132.338H242.088V134.486C246.43 134.715 249.688 135.657 249.712 136.787L249.712 139.142C249.688 140.271 246.43 141.214 242.088 141.443V146.712H237.983V141.443C233.641 141.214 230.383 140.271 230.359 139.142L230.359 136.787C230.383 135.657 233.641 134.715 237.983 134.486V132.338H231.8V129.242H248.27ZM240.035 139.825C244.669 139.825 248.542 139.029 249.49 137.964C248.686 137.062 245.779 136.352 242.088 136.157V138.405C241.426 138.44 240.74 138.458 240.035 138.458C239.331 138.458 238.644 138.44 237.983 138.405V136.157C234.292 136.352 231.384 137.062 230.581 137.964C231.528 139.029 235.401 139.825 240.035 139.825Z" fill="white"/>
<ellipse cx="328.5" cy="291" rx="29.5" ry="30" fill="#009393"/>
<g clip-path="url(#clip0_6791_36963)">
<path fill-rule="evenodd" clip-rule="evenodd" d="M347.478 287.568L341.157 276.716C340.899 276.273 340.421 276 339.902 276H318.205C317.701 276 317.235 276.259 316.971 276.682L310.214 287.557C309.862 288.123 309.952 288.854 310.43 289.32L327.807 306.28C328.37 306.831 329.276 306.831 329.841 306.28L347.241 289.297C347.708 288.841 347.805 288.131 347.478 287.568V287.568Z" fill="white"/>
<path d="M333.634 294.835H323.304V292.745H333.634V294.835ZM330.716 289.398H323.254V287.362H330.716V289.398ZM327.325 285.057L327.554 290.816C327.582 291.412 327.477 291.927 327.239 292.362C327.005 292.792 326.593 293.146 326.001 293.424L324.113 292.745C324.346 292.714 324.525 292.599 324.649 292.402C324.773 292.205 324.857 291.972 324.9 291.703C324.943 291.43 324.959 291.17 324.95 290.924L324.735 285.057C324.702 284.147 324.885 283.383 325.286 282.765C325.691 282.142 326.242 281.674 326.938 281.36C327.635 281.042 328.405 280.883 329.249 280.883C329.974 280.883 330.623 280.986 331.195 281.192C331.772 281.398 332.256 281.685 332.647 282.053C333.043 282.42 333.332 282.846 333.513 283.329C333.699 283.813 333.758 284.335 333.692 284.895L331.209 284.7C331.243 284.293 331.171 283.959 330.995 283.699C330.823 283.435 330.585 283.242 330.279 283.121C329.979 282.996 329.657 282.933 329.314 282.933C328.961 282.933 328.632 283.009 328.326 283.161C328.026 283.314 327.783 283.547 327.597 283.86C327.415 284.174 327.325 284.573 327.325 285.057Z" fill="#009393"/>
</g>
<ellipse cx="239.5" cy="341" rx="29.5" ry="30" fill="#009393"/>
<path fill-rule="evenodd" clip-rule="evenodd" d="M229.204 325H250.902C251.42 325 251.898 325.278 252.156 325.729L258.477 336.765C258.805 337.337 258.708 338.06 258.24 338.524L240.84 355.795C240.277 356.354 239.37 356.354 238.806 355.795L221.43 338.547C220.952 338.072 220.862 337.329 221.214 336.753L227.971 325.693C228.234 325.263 228.701 325 229.204 325ZM237.816 334.985H243.62L242.806 336.794H237.528C237.512 337.058 237.504 337.339 237.504 337.636C237.504 337.917 237.512 338.189 237.528 338.445H242.05L241.154 340.295H237.816C238.367 342.261 239.6 343.12 241.269 343.12C242.716 343.12 243.777 342.434 244.377 341.988L245.709 344.813C244.516 345.804 242.963 346.308 241.269 346.308C237.717 346.308 235.029 344.136 234.199 340.295H231.814L232.48 338.445H233.952C233.936 338.181 233.927 337.908 233.927 337.636C233.927 337.347 233.936 337.066 233.952 336.794H231.814L232.48 334.985H234.199C235.029 331.136 237.717 328.931 241.269 328.931C243.028 328.931 244.541 329.476 245.758 330.467L244.442 333.292C243.785 332.829 242.724 332.119 241.269 332.119C239.6 332.119 238.367 333.011 237.816 334.985Z" fill="white"/>
<circle cx="328" cy="189" r="30" fill="#009393"/>
<path d="M346.48 185.539L340.158 174.714C339.902 174.272 339.425 174 338.906 174H317.206C316.703 174 316.234 174.255 315.97 174.68L309.214 185.53C308.865 186.091 308.95 186.822 309.427 187.289L326.807 204.206C327.37 204.758 328.273 204.758 328.844 204.206L346.241 187.263C346.71 186.813 346.803 186.099 346.48 185.539ZM322.863 188.546C322.863 188.606 322.837 188.657 322.795 188.699C322.752 188.742 322.692 188.767 322.633 188.767H321.857C321.789 188.767 321.738 188.742 321.695 188.699C321.653 188.657 321.636 188.606 321.636 188.546V184.578L320.349 187.025C320.315 187.076 320.281 187.127 320.23 187.17C320.179 187.212 320.119 187.229 320.034 187.229H319.659C319.574 187.229 319.506 187.212 319.463 187.17C319.421 187.127 319.378 187.085 319.353 187.025L318.066 184.578V188.546C318.066 188.606 318.04 188.657 317.998 188.699C317.955 188.742 317.904 188.767 317.845 188.767H317.069C317.001 188.767 316.95 188.742 316.907 188.699C316.865 188.657 316.839 188.606 316.839 188.546V182.573C316.839 182.505 316.865 182.454 316.907 182.412C316.95 182.369 317.01 182.344 317.069 182.344H317.793C317.879 182.344 317.947 182.369 317.989 182.412C318.032 182.454 318.058 182.497 318.075 182.514L319.847 185.819L321.636 182.514C321.644 182.488 321.678 182.454 321.721 182.412C321.764 182.369 321.832 182.344 321.917 182.344H322.633C322.701 182.344 322.752 182.369 322.795 182.412C322.837 182.454 322.863 182.514 322.863 182.573V188.546V188.546ZM328.145 186.516C328.145 186.575 328.119 186.626 328.077 186.669C328.034 186.711 327.975 186.737 327.915 186.737H324.865C324.865 186.771 324.865 186.796 324.865 186.813C324.873 187.025 324.916 187.221 324.993 187.408C325.069 187.586 325.18 187.731 325.333 187.841C325.487 187.952 325.666 188.003 325.87 188.003C326.041 188.003 326.185 187.977 326.305 187.926C326.424 187.875 326.518 187.816 326.586 187.748C326.663 187.68 326.714 187.629 326.739 187.586C326.79 187.51 326.841 187.467 326.876 187.45C326.91 187.433 326.961 187.425 327.029 187.425H327.821C327.881 187.425 327.932 187.442 327.975 187.476C328.017 187.51 328.034 187.561 328.026 187.612C328.017 187.714 327.966 187.833 327.872 187.969C327.779 188.113 327.642 188.249 327.463 188.385C327.284 188.521 327.063 188.631 326.799 188.716C326.535 188.801 326.228 188.852 325.887 188.852C325.206 188.852 324.669 188.657 324.268 188.266C323.868 187.875 323.655 187.314 323.621 186.601C323.612 186.541 323.612 186.465 323.612 186.363C323.612 186.269 323.612 186.193 323.621 186.142C323.647 185.683 323.749 185.284 323.936 184.952C324.124 184.612 324.379 184.358 324.711 184.179C325.044 184.001 325.436 183.907 325.879 183.907C326.373 183.907 326.79 184.009 327.131 184.213C327.472 184.417 327.719 184.706 327.898 185.063C328.068 185.428 328.153 185.844 328.153 186.32V186.516H328.145ZM332.993 188.708C332.95 188.75 332.908 188.767 332.848 188.767H332.013C331.945 188.767 331.894 188.75 331.86 188.716C331.826 188.682 331.791 188.648 331.766 188.623L330.658 187.161L329.534 188.623C329.508 188.657 329.483 188.682 329.449 188.716C329.414 188.75 329.363 188.767 329.287 188.767H328.477C328.426 188.767 328.375 188.75 328.332 188.708C328.29 188.665 328.273 188.623 328.273 188.563C328.273 188.546 328.281 188.521 328.29 188.495C328.298 188.47 328.315 188.444 328.341 188.402L329.909 186.312L328.452 184.349C328.435 184.315 328.418 184.29 328.409 184.264C328.401 184.239 328.392 184.213 328.392 184.188C328.392 184.137 328.409 184.086 328.452 184.043C328.494 184.001 328.537 183.984 328.597 183.984H329.397C329.474 183.984 329.525 184.001 329.559 184.035C329.593 184.069 329.627 184.103 329.644 184.137L330.684 185.513L331.723 184.137C331.749 184.103 331.774 184.069 331.809 184.035C331.843 184.001 331.894 183.984 331.97 183.984H332.737C332.788 183.984 332.839 184.001 332.882 184.043C332.925 184.086 332.942 184.128 332.942 184.179C332.942 184.213 332.933 184.239 332.925 184.264C332.916 184.29 332.899 184.315 332.882 184.349L331.408 186.329L332.984 188.402C333.01 188.436 333.027 188.47 333.035 188.495C333.044 188.521 333.052 188.538 333.052 188.563C333.052 188.623 333.027 188.665 332.993 188.708ZM338.207 187.875C338.028 188.139 337.789 188.359 337.466 188.521C337.15 188.682 336.776 188.784 336.341 188.835V189.464C336.341 189.524 336.315 189.574 336.273 189.617C336.23 189.659 336.179 189.685 336.12 189.685H335.557C335.498 189.685 335.446 189.659 335.404 189.617C335.361 189.574 335.336 189.524 335.336 189.464V188.818C334.884 188.776 334.501 188.665 334.186 188.495C333.87 188.317 333.64 188.113 333.478 187.867C333.317 187.62 333.231 187.357 333.223 187.093C333.223 187.042 333.24 186.991 333.282 186.957C333.325 186.924 333.368 186.907 333.427 186.907H334.245C334.322 186.907 334.373 186.924 334.424 186.957C334.467 186.991 334.501 187.034 334.526 187.085C334.569 187.204 334.637 187.314 334.739 187.425C334.842 187.535 334.986 187.629 335.165 187.705C335.353 187.782 335.583 187.816 335.855 187.816C336.298 187.816 336.622 187.739 336.835 187.595C337.048 187.45 337.159 187.246 337.159 187C337.159 186.822 337.099 186.677 336.989 186.575C336.878 186.465 336.699 186.371 336.452 186.278C336.205 186.193 335.881 186.099 335.489 185.997C335.038 185.887 334.654 185.751 334.339 185.598C334.024 185.445 333.794 185.241 333.632 185.003C333.478 184.765 333.393 184.459 333.393 184.094C333.393 183.627 333.564 183.219 333.904 182.896C334.245 182.565 334.722 182.361 335.327 182.293V181.647C335.327 181.588 335.353 181.537 335.395 181.494C335.438 181.452 335.489 181.426 335.549 181.426H336.111C336.171 181.426 336.222 181.452 336.264 181.494C336.307 181.537 336.333 181.588 336.333 181.647V182.301C336.75 182.361 337.099 182.488 337.38 182.667C337.662 182.854 337.875 183.058 338.028 183.295C338.173 183.533 338.249 183.763 338.258 183.975C338.258 184.026 338.241 184.069 338.207 184.111C338.173 184.154 338.122 184.171 338.062 184.171H337.21C337.159 184.171 337.099 184.162 337.057 184.137C337.006 184.111 336.972 184.069 336.937 184.001C336.903 183.814 336.793 183.652 336.588 183.516C336.384 183.38 336.12 183.312 335.796 183.312C335.463 183.312 335.199 183.372 335.003 183.499C334.807 183.618 334.705 183.814 334.705 184.069C334.705 184.239 334.756 184.383 334.85 184.493C334.944 184.604 335.106 184.706 335.336 184.791C335.557 184.876 335.855 184.969 336.23 185.063C336.75 185.182 337.176 185.318 337.508 185.471C337.832 185.624 338.079 185.819 338.232 186.057C338.386 186.295 338.471 186.592 338.471 186.949C338.471 187.297 338.377 187.603 338.207 187.875Z" fill="white"/>
<path d="M326.432 184.893C326.279 184.791 326.092 184.74 325.879 184.74C325.666 184.74 325.478 184.791 325.325 184.893C325.171 184.995 325.061 185.139 324.984 185.318C324.907 185.496 324.873 185.7 324.873 185.938V185.963H326.91V185.938C326.91 185.7 326.867 185.488 326.79 185.318C326.697 185.139 326.586 185.003 326.432 184.893Z" fill="white"/>
<path d="M322.633 182.344H321.917C321.832 182.344 321.764 182.369 321.721 182.412C321.678 182.454 321.653 182.497 321.636 182.514L319.847 185.819L318.074 182.514C318.066 182.488 318.032 182.454 317.989 182.412C317.947 182.369 317.879 182.344 317.793 182.344H317.069C317.001 182.344 316.95 182.369 316.907 182.412C316.865 182.454 316.839 182.514 316.839 182.573V188.546C316.839 188.606 316.865 188.657 316.907 188.699C316.95 188.742 317.01 188.767 317.069 188.767H317.844C317.904 188.767 317.955 188.742 317.998 188.699C318.04 188.657 318.066 188.606 318.066 188.546V184.578L319.352 187.025C319.387 187.076 319.421 187.127 319.463 187.17C319.506 187.212 319.574 187.229 319.659 187.229H320.034C320.111 187.229 320.179 187.212 320.23 187.17C320.281 187.127 320.315 187.085 320.349 187.025L321.636 184.578V188.546C321.636 188.606 321.653 188.657 321.695 188.699C321.738 188.742 321.789 188.767 321.857 188.767H322.633C322.701 188.767 322.752 188.742 322.794 188.699C322.837 188.657 322.863 188.606 322.863 188.546V182.573C322.863 182.505 322.837 182.454 322.794 182.412C322.752 182.369 322.701 182.344 322.633 182.344Z" fill="#009393"/>
<path d="M327.131 184.213C326.79 184.009 326.373 183.907 325.879 183.907C325.427 183.907 325.044 184.001 324.711 184.179C324.379 184.358 324.124 184.621 323.936 184.952C323.749 185.292 323.647 185.683 323.621 186.142C323.612 186.193 323.612 186.269 323.612 186.363C323.612 186.456 323.612 186.533 323.621 186.601C323.655 187.323 323.868 187.875 324.268 188.266C324.669 188.657 325.206 188.852 325.887 188.852C326.228 188.852 326.535 188.81 326.799 188.716C327.063 188.631 327.284 188.512 327.463 188.385C327.642 188.249 327.779 188.113 327.872 187.969C327.966 187.824 328.017 187.705 328.026 187.612C328.034 187.561 328.017 187.51 327.975 187.476C327.932 187.442 327.881 187.425 327.821 187.425H327.029C326.961 187.425 326.91 187.433 326.876 187.45C326.841 187.467 326.799 187.51 326.739 187.586C326.705 187.629 326.654 187.688 326.586 187.748C326.509 187.816 326.415 187.875 326.305 187.926C326.185 187.977 326.041 188.003 325.87 188.003C325.666 188.003 325.478 187.952 325.333 187.841C325.18 187.731 325.069 187.586 324.993 187.408C324.916 187.229 324.873 187.034 324.865 186.813C324.865 186.805 324.865 186.779 324.865 186.737H327.915C327.983 186.737 328.034 186.711 328.077 186.669C328.119 186.626 328.145 186.575 328.145 186.516V186.32C328.145 185.844 328.06 185.42 327.889 185.063C327.719 184.706 327.463 184.417 327.131 184.213ZM326.901 185.972H324.865V185.946C324.865 185.708 324.899 185.496 324.976 185.326C325.052 185.148 325.163 185.012 325.316 184.901C325.47 184.799 325.657 184.748 325.87 184.748C326.083 184.748 326.271 184.799 326.424 184.901C326.577 185.003 326.697 185.148 326.773 185.326C326.85 185.505 326.893 185.708 326.893 185.946V185.972H326.901Z" fill="#009393"/>
<path d="M332.984 188.41L331.408 186.337L332.882 184.358C332.899 184.324 332.916 184.298 332.925 184.273C332.933 184.247 332.942 184.222 332.942 184.188C332.942 184.137 332.925 184.094 332.882 184.052C332.839 184.009 332.797 183.992 332.737 183.992H331.97C331.894 183.992 331.843 184.009 331.809 184.043C331.774 184.077 331.749 184.111 331.723 184.145L330.684 185.522L329.645 184.145C329.627 184.111 329.602 184.077 329.559 184.043C329.517 184.009 329.466 183.992 329.397 183.992H328.597C328.545 183.992 328.494 184.009 328.452 184.052C328.409 184.094 328.392 184.137 328.392 184.196C328.392 184.222 328.401 184.247 328.409 184.273C328.418 184.298 328.435 184.324 328.452 184.358L329.909 186.32L328.341 188.41C328.315 188.444 328.298 188.478 328.29 188.504C328.281 188.529 328.273 188.546 328.273 188.572C328.273 188.623 328.29 188.674 328.332 188.716C328.375 188.759 328.418 188.776 328.477 188.776H329.287C329.363 188.776 329.414 188.759 329.449 188.725C329.483 188.691 329.508 188.657 329.534 188.631L330.658 187.17L331.766 188.631C331.792 188.665 331.817 188.691 331.86 188.725C331.894 188.759 331.945 188.776 332.013 188.776H332.848C332.899 188.776 332.95 188.759 332.993 188.716C333.035 188.674 333.052 188.631 333.052 188.572C333.052 188.555 333.044 188.529 333.035 188.504C333.027 188.478 333.01 188.444 332.984 188.41Z" fill="#009393"/>
<path d="M337.508 185.462C337.176 185.309 336.759 185.173 336.23 185.054C335.855 184.952 335.557 184.867 335.336 184.782C335.114 184.697 334.952 184.595 334.85 184.485C334.748 184.374 334.705 184.23 334.705 184.06C334.705 183.805 334.807 183.61 335.003 183.491C335.199 183.372 335.472 183.304 335.796 183.304C336.12 183.304 336.384 183.372 336.588 183.508C336.793 183.644 336.903 183.805 336.937 183.992C336.971 184.06 337.006 184.103 337.057 184.128C337.108 184.154 337.159 184.162 337.21 184.162H338.062C338.122 184.162 338.173 184.145 338.207 184.103C338.241 184.06 338.258 184.018 338.258 183.967C338.249 183.746 338.173 183.516 338.028 183.287C337.883 183.049 337.67 182.845 337.38 182.658C337.099 182.471 336.75 182.352 336.333 182.293V181.647C336.333 181.588 336.307 181.537 336.264 181.494C336.222 181.452 336.171 181.426 336.111 181.426H335.557C335.498 181.426 335.446 181.452 335.404 181.494C335.361 181.537 335.336 181.588 335.336 181.647V182.276C334.731 182.352 334.254 182.548 333.913 182.879C333.572 183.21 333.402 183.61 333.402 184.077C333.402 184.442 333.478 184.748 333.64 184.986C333.794 185.224 334.032 185.42 334.347 185.581C334.663 185.734 335.046 185.87 335.498 185.98C335.898 186.082 336.222 186.167 336.46 186.261C336.707 186.346 336.886 186.448 336.997 186.558C337.108 186.669 337.167 186.805 337.167 186.983C337.167 187.238 337.057 187.433 336.844 187.578C336.631 187.722 336.298 187.799 335.864 187.799C335.591 187.799 335.361 187.765 335.174 187.688C334.986 187.612 334.85 187.518 334.748 187.408C334.646 187.297 334.577 187.178 334.535 187.068C334.509 187.017 334.475 186.974 334.433 186.941C334.39 186.907 334.33 186.89 334.254 186.89H333.427C333.376 186.89 333.325 186.907 333.282 186.941C333.24 186.974 333.223 187.025 333.223 187.076C333.231 187.348 333.316 187.603 333.478 187.85C333.64 188.096 333.87 188.308 334.186 188.478C334.501 188.657 334.884 188.759 335.336 188.801V189.447C335.336 189.507 335.361 189.557 335.404 189.6C335.446 189.642 335.498 189.668 335.557 189.668H336.12C336.179 189.668 336.23 189.642 336.273 189.6C336.315 189.557 336.341 189.507 336.341 189.447V188.818C336.767 188.767 337.142 188.665 337.466 188.504C337.781 188.342 338.028 188.13 338.207 187.858C338.386 187.595 338.471 187.28 338.471 186.924C338.471 186.567 338.394 186.261 338.232 186.031C338.079 185.81 337.832 185.615 337.508 185.462Z" fill="#009393"/>
<circle cx="152" cy="189" r="30" fill="#009393"/>
<path d="M152.996 188.893L152.965 192.449C154.129 192.221 154.838 191.536 154.846 190.614C154.838 189.746 154.191 189.267 152.996 188.893Z" fill="white"/>
<path d="M149.566 183.769C149.55 184.645 150.244 185.14 151.208 185.467L151.238 182.101C150.152 182.322 149.566 182.954 149.566 183.769Z" fill="white"/>
<path fill-rule="evenodd" clip-rule="evenodd" d="M141.368 174.349H163.068C163.586 174.349 164.064 174.622 164.322 175.065L170.644 185.919C170.972 186.482 170.875 187.193 170.407 187.649L153.005 204.634C152.442 205.184 151.535 205.184 150.971 204.634L133.593 187.672C133.114 187.205 133.025 186.474 133.377 185.907L140.134 175.031C140.398 174.607 140.865 174.349 141.368 174.349ZM152.919 197.026H151.1L151.115 195.259C147.847 194.977 145.804 193.257 145.727 190.18H148.957C149.042 191.452 149.889 192.213 151.146 192.449L151.184 188.421L150.444 188.239C147.777 187.607 146.135 186.289 146.143 183.99C146.128 181.393 148.255 179.596 151.269 179.307L151.285 177.533H153.104L153.088 179.322C156.056 179.642 157.96 181.447 157.999 183.967H154.8C154.707 183.007 154.083 182.36 153.058 182.124L153.027 185.931L153.482 186.038C156.226 186.647 158.207 188.025 158.215 190.622C158.207 193.264 156.272 195.015 152.934 195.267L152.919 197.026Z" fill="white"/>
<circle cx="152" cy="291" r="30" fill="#009393"/>
<path fill-rule="evenodd" clip-rule="evenodd" d="M141.368 276.349H163.068C163.586 276.349 164.064 276.622 164.322 277.065L170.644 287.919C170.972 288.482 170.875 289.193 170.407 289.649L153.005 306.634C152.442 307.184 151.535 307.184 150.971 306.634L133.593 289.672C133.114 289.205 133.025 288.474 133.377 287.907L140.134 277.031C140.398 276.607 140.865 276.349 141.368 276.349Z" fill="white"/>
<path d="M148.699 280.507H145.11L149.494 289.681H146.275V291.737H150.345V293.3H146.275V295.356H150.345V299.221H153.749V295.356H157.635V293.3H153.749V291.737H157.635V289.681H154.674L159.068 280.507H155.479L152.094 288.338L148.699 280.507Z" fill="#009393"/>
<defs>
<filter id="filter0_d_6791_36963" x="175.768" y="180.765" width="128" height="128" filterUnits="userSpaceOnUse" color-interpolation-filters="sRGB">
<feFlood flood-opacity="0" result="BackgroundImageFix"/>
<feColorMatrix in="SourceAlpha" type="matrix" values="0 0 0 0 0 0 0 0 0 0 0 0 0 0 0 0 0 0 127 0" result="hardAlpha"/>
<feOffset dy="5"/>
<feGaussianBlur stdDeviation="12"/>
<feColorMatrix type="matrix" values="0 0 0 0 0.00864583 0 0 0 0 0.345833 0 0 0 0 0.345833 0 0 0 0.03 0"/>
<feBlend mode="normal" in2="BackgroundImageFix" result="effect1_dropShadow_6791_36963"/>
<feBlend mode="normal" in="SourceGraphic" in2="effect1_dropShadow_6791_36963" result="shape"/>
</filter>
<filter id="filter1_d_6791_36963" x="175.768" y="180.765" width="128" height="128" filterUnits="userSpaceOnUse" color-interpolation-filters="sRGB">
<feFlood flood-opacity="0" result="BackgroundImageFix"/>
<feColorMatrix in="SourceAlpha" type="matrix" values="0 0 0 0 0 0 0 0 0 0 0 0 0 0 0 0 0 0 127 0" result="hardAlpha"/>
<feOffset dy="5"/>
<feGaussianBlur stdDeviation="12"/>
<feColorMatrix type="matrix" values="0 0 0 0 0.00864583 0 0 0 0 0.345833 0 0 0 0 0.345833 0 0 0 0.03 0"/>
<feBlend mode="normal" in2="BackgroundImageFix" result="effect1_dropShadow_6791_36963"/>
<feBlend mode="normal" in="SourceGraphic" in2="effect1_dropShadow_6791_36963" result="shape"/>
</filter>
<clipPath id="clip0_6791_36963">
<rect width="37.67" height="30.6941" fill="white" transform="translate(310 276)"/>
</clipPath>
</defs>
</svg>
