<svg width="720" height="560" viewBox="0 0 720 560" fill="none" xmlns="http://www.w3.org/2000/svg">
<g opacity="0.16">
<g opacity="0.2">
<path d="M120 180C120 146.863 146.863 120 180 120C213.137 120 240 146.863 240 180C240 213.137 213.137 240 180 240C146.863 240 120 213.137 120 180Z" fill="url(#paint0_linear)"/>
</g>
<path d="M480 60C480 26.8629 506.863 -5.12908e-07 540 2.38403e-06C573.137 5.28096e-06 600 26.8629 600 60C600 93.1371 573.137 120 540 120C506.863 120 480 93.1371 480 60Z" fill="url(#paint1_linear)"/>
<g opacity="0.2">
<path d="M180 480C146.863 480 120 453.137 120 420L180 420L180 480Z" fill="url(#paint2_linear)"/>
<path d="M180 420L180 360C213.137 360 240 386.863 240 420L180 420Z" fill="url(#paint3_linear)"/>
</g>
<path d="M480 60C480 93.137 453.137 120 420 120L420 60L480 60Z" fill="url(#paint4_linear)"/>
<path d="M420 60L360 60C360 26.8629 386.863 -9.86502e-06 420 -2.62268e-06L420 60Z" fill="url(#paint5_linear)"/>
<path d="M240 240C306.274 240 360 186.274 360 120L240 120L240 240Z" fill="url(#paint6_linear)"/>
<g opacity="0.3">
<path d="M480.204 239.795C479.978 173.521 426.069 119.979 359.796 120.205L360.205 240.204L480.204 239.795Z" fill="url(#paint7_linear)"/>
</g>
<g opacity="0.2">
<path d="M60 360L60 300L5.24537e-06 300L60 240L60 300L120 300L60 360Z" fill="url(#paint8_linear)"/>
</g>
<path d="M-3.29016e-05 420C-3.00047e-05 386.863 26.8629 360 60 360C93.1371 360 120 386.863 120 420C120 453.137 93.1371 480 60 480C26.8629 480 -3.57985e-05 453.137 -3.29016e-05 420Z" fill="url(#paint9_linear)"/>
<path d="M-2.76562e-05 120C-3.34501e-05 186.274 53.7258 240 120 240L120 120L-2.76562e-05 120Z" fill="url(#paint10_linear)"/>
<g opacity="0.4">
<path d="M120 120L-3.8147e-05 120L-2.76562e-05 -2.86134e-06L120 7.62939e-06L120 120Z" fill="url(#paint11_linear)"/>
</g>
<g opacity="0.3">
<path d="M1.04907e-05 480L0 600L120 480L1.04907e-05 480Z" fill="url(#paint12_linear)"/>
</g>
<g opacity="0.5">
<path d="M240 360L240 240L120 360L240 360Z" fill="url(#paint13_linear)"/>
</g>
<path d="M240 240L240 360L360 240L240 240Z" fill="url(#paint14_linear)"/>
<path d="M240 5.24536e-06L120 0L240 120L240 5.24536e-06Z" fill="url(#paint15_linear)"/>
<g opacity="0.2">
<path d="M360 120L360 0L240 120L360 120Z" fill="url(#paint16_linear)"/>
</g>
</g>
<defs>
<linearGradient id="paint0_linear" x1="131.02" y1="123.673" x2="232.041" y2="132.245" gradientUnits="userSpaceOnUse">
<stop stop-color="#16A5A5"/>
<stop offset="1" stop-color="#3FC6C6"/>
</linearGradient>
<linearGradient id="paint1_linear" x1="491.02" y1="3.67349" x2="592.041" y2="12.2449" gradientUnits="userSpaceOnUse">
<stop stop-color="#16A5A5"/>
<stop offset="1" stop-color="#3FC6C6"/>
</linearGradient>
<linearGradient id="paint2_linear" x1="131.02" y1="363.673" x2="232.041" y2="372.245" gradientUnits="userSpaceOnUse">
<stop stop-color="#16A5A5"/>
<stop offset="1" stop-color="#3FC6C6"/>
</linearGradient>
<linearGradient id="paint3_linear" x1="131.02" y1="363.673" x2="232.041" y2="372.245" gradientUnits="userSpaceOnUse">
<stop stop-color="#16A5A5"/>
<stop offset="1" stop-color="#3FC6C6"/>
</linearGradient>
<linearGradient id="paint4_linear" x1="363.673" y1="108.98" x2="372.245" y2="7.95919" gradientUnits="userSpaceOnUse">
<stop stop-color="#16A5A5"/>
<stop offset="1" stop-color="#3FC6C6"/>
</linearGradient>
<linearGradient id="paint5_linear" x1="363.673" y1="108.98" x2="372.245" y2="7.95919" gradientUnits="userSpaceOnUse">
<stop stop-color="#16A5A5"/>
<stop offset="1" stop-color="#3FC6C6"/>
</linearGradient>
<linearGradient id="paint6_linear" x1="243.673" y1="228.98" x2="252.245" y2="127.959" gradientUnits="userSpaceOnUse">
<stop stop-color="#16A5A5"/>
<stop offset="1" stop-color="#3FC6C6"/>
</linearGradient>
<linearGradient id="paint7_linear" x1="469.172" y1="236.159" x2="368.122" y2="227.932" gradientUnits="userSpaceOnUse">
<stop stop-color="#16A5A5"/>
<stop offset="1" stop-color="#3FC6C6"/>
</linearGradient>
<linearGradient id="paint8_linear" x1="108.98" y1="243.674" x2="7.95921" y2="252.245" gradientUnits="userSpaceOnUse">
<stop stop-color="#16A5A5"/>
<stop offset="1" stop-color="#3FC6C6"/>
</linearGradient>
<linearGradient id="paint9_linear" x1="11.0204" y1="363.673" x2="112.041" y2="372.245" gradientUnits="userSpaceOnUse">
<stop stop-color="#16A5A5"/>
<stop offset="1" stop-color="#3FC6C6"/>
</linearGradient>
<linearGradient id="paint10_linear" x1="11.0204" y1="123.673" x2="112.041" y2="132.245" gradientUnits="userSpaceOnUse">
<stop stop-color="#16A5A5"/>
<stop offset="1" stop-color="#3FC6C6"/>
</linearGradient>
<linearGradient id="paint11_linear" x1="11.0204" y1="3.67349" x2="112.041" y2="12.2449" gradientUnits="userSpaceOnUse">
<stop stop-color="#16A5A5"/>
<stop offset="1" stop-color="#3FC6C6"/>
</linearGradient>
<linearGradient id="paint12_linear" x1="108.98" y1="483.673" x2="7.95921" y2="492.245" gradientUnits="userSpaceOnUse">
<stop stop-color="#16A5A5"/>
<stop offset="1" stop-color="#3FC6C6"/>
</linearGradient>
<linearGradient id="paint13_linear" x1="131.02" y1="356.326" x2="232.041" y2="347.755" gradientUnits="userSpaceOnUse">
<stop stop-color="#16A5A5"/>
<stop offset="1" stop-color="#3FC6C6"/>
</linearGradient>
<linearGradient id="paint14_linear" x1="348.98" y1="243.673" x2="247.959" y2="252.245" gradientUnits="userSpaceOnUse">
<stop stop-color="#16A5A5"/>
<stop offset="1" stop-color="#3FC6C6"/>
</linearGradient>
<linearGradient id="paint15_linear" x1="236.326" y1="108.98" x2="227.755" y2="7.9592" gradientUnits="userSpaceOnUse">
<stop stop-color="#16A5A5"/>
<stop offset="1" stop-color="#3FC6C6"/>
</linearGradient>
<linearGradient id="paint16_linear" x1="251.02" y1="116.326" x2="352.041" y2="107.755" gradientUnits="userSpaceOnUse">
<stop stop-color="#16A5A5"/>
<stop offset="1" stop-color="#3FC6C6"/>
</linearGradient>
</defs>
</svg>
