<svg width="720" height="720" viewBox="0 0 720 720" fill="none" xmlns="http://www.w3.org/2000/svg">
<g clip-path="url(#clip0)">
<path opacity="0.06" d="M0 720H720L0 -6.10352e-05V720Z" fill="url(#paint0_linear)"/>
<g opacity="0.08">
<g opacity="0.2">
<path d="M120 300C120 266.863 146.863 240 180 240C213.137 240 240 266.863 240 300C240 333.137 213.137 360 180 360C146.863 360 120 333.137 120 300Z" fill="url(#paint1_linear)"/>
</g>
<path d="M240 360C306.274 360 360 306.274 360 240L240 240L240 360Z" fill="url(#paint2_linear)"/>
<g opacity="0.6">
<path d="M60 480L60 420H0L60 360L60 420H120L60 480Z" fill="url(#paint3_linear)"/>
</g>
<path d="M-3.8147e-05 540C-3.8147e-05 506.863 26.8629 480 60 480C93.1371 480 120 506.863 120 540C120 573.137 93.1371 600 60 600C26.8629 600 -3.8147e-05 573.137 -3.8147e-05 540Z" fill="url(#paint4_linear)"/>
<path d="M-3.8147e-05 240C-3.8147e-05 306.274 53.7258 360 120 360L120 240H-3.8147e-05Z" fill="url(#paint5_linear)"/>
<g opacity="0.4">
<path d="M120 240L-3.8147e-05 240L-3.8147e-05 120L120 120L120 240Z" fill="url(#paint6_linear)"/>
</g>
<g opacity="0.3">
<path d="M0 600L0 720L120 600H0Z" fill="url(#paint7_linear)"/>
</g>
<path d="M240 120L120 120L240 240L240 120Z" fill="url(#paint8_linear)"/>
<path d="M360 59.9999L300 59.9999L300 120L240 59.9999L300 59.9999L300 -0.000101805L360 59.9999Z" fill="url(#paint9_linear)"/>
<g opacity="0.5">
<path d="M120 120C186.274 120 240 66.2741 240 -6.10352e-05L120 -5.57898e-05L120 120Z" fill="url(#paint10_linear)"/>
</g>
<g opacity="0.5">
<path d="M600 -2.52722e-05C533.726 -2.81691e-05 480 53.7258 480 120L600 120L600 -2.52722e-05Z" fill="url(#paint11_linear)"/>
</g>
<path d="M360 -9.91821e-05L360 120L480 -0.000109673L360 -9.91821e-05Z" fill="url(#paint12_linear)"/>
<path d="M600 59.9999C600 93.137 626.863 120 660 120L660 59.9999L600 59.9999Z" fill="url(#paint13_linear)"/>
<path d="M660 59.9999L720 59.9999C720 26.8628 693.137 -6.91775e-05 660 -5.86511e-05L660 59.9999Z" fill="url(#paint14_linear)"/>
<g opacity="0.2">
<path d="M360 240L360 120L240 240L360 240Z" fill="url(#paint15_linear)"/>
</g>
</g>
<path d="M150 570C150 338.04 338.04 150 570 150V570H150Z" fill="url(#paint16_linear)"/>
<path d="M310 455.333L450 455.333M361.333 432L361.333 376M398.667 432L398.667 348M436 432L436 320M324 404L324 432" stroke="white" stroke-width="8" stroke-linecap="round" stroke-linejoin="round"/>
</g>
<defs>
<linearGradient id="paint0_linear" x1="653.878" y1="697.959" x2="47.7552" y2="646.53" gradientUnits="userSpaceOnUse">
<stop stop-color="#16A5A5"/>
<stop offset="1" stop-color="#3FC6C6"/>
</linearGradient>
<linearGradient id="paint1_linear" x1="131.02" y1="243.673" x2="232.041" y2="252.245" gradientUnits="userSpaceOnUse">
<stop stop-color="#16A5A5"/>
<stop offset="1" stop-color="#3FC6C6"/>
</linearGradient>
<linearGradient id="paint2_linear" x1="243.673" y1="348.98" x2="252.245" y2="247.959" gradientUnits="userSpaceOnUse">
<stop stop-color="#16A5A5"/>
<stop offset="1" stop-color="#3FC6C6"/>
</linearGradient>
<linearGradient id="paint3_linear" x1="108.98" y1="363.673" x2="7.9592" y2="372.245" gradientUnits="userSpaceOnUse">
<stop stop-color="#16A5A5"/>
<stop offset="1" stop-color="#3FC6C6"/>
</linearGradient>
<linearGradient id="paint4_linear" x1="11.0204" y1="483.673" x2="112.041" y2="492.245" gradientUnits="userSpaceOnUse">
<stop stop-color="#16A5A5"/>
<stop offset="1" stop-color="#3FC6C6"/>
</linearGradient>
<linearGradient id="paint5_linear" x1="11.0204" y1="243.673" x2="112.041" y2="252.245" gradientUnits="userSpaceOnUse">
<stop stop-color="#16A5A5"/>
<stop offset="1" stop-color="#3FC6C6"/>
</linearGradient>
<linearGradient id="paint6_linear" x1="11.0204" y1="123.673" x2="112.041" y2="132.245" gradientUnits="userSpaceOnUse">
<stop stop-color="#16A5A5"/>
<stop offset="1" stop-color="#3FC6C6"/>
</linearGradient>
<linearGradient id="paint7_linear" x1="108.98" y1="603.673" x2="7.9592" y2="612.245" gradientUnits="userSpaceOnUse">
<stop stop-color="#16A5A5"/>
<stop offset="1" stop-color="#3FC6C6"/>
</linearGradient>
<linearGradient id="paint8_linear" x1="236.326" y1="228.98" x2="227.755" y2="127.959" gradientUnits="userSpaceOnUse">
<stop stop-color="#16A5A5"/>
<stop offset="1" stop-color="#3FC6C6"/>
</linearGradient>
<linearGradient id="paint9_linear" x1="243.673" y1="11.0203" x2="252.245" y2="112.041" gradientUnits="userSpaceOnUse">
<stop stop-color="#16A5A5"/>
<stop offset="1" stop-color="#3FC6C6"/>
</linearGradient>
<linearGradient id="paint10_linear" x1="123.674" y1="108.98" x2="132.245" y2="7.95914" gradientUnits="userSpaceOnUse">
<stop stop-color="#16A5A5"/>
<stop offset="1" stop-color="#3FC6C6"/>
</linearGradient>
<linearGradient id="paint11_linear" x1="596.327" y1="11.0204" x2="587.755" y2="112.041" gradientUnits="userSpaceOnUse">
<stop stop-color="#16A5A5"/>
<stop offset="1" stop-color="#3FC6C6"/>
</linearGradient>
<linearGradient id="paint12_linear" x1="468.98" y1="3.67338" x2="367.959" y2="12.2448" gradientUnits="userSpaceOnUse">
<stop stop-color="#16A5A5"/>
<stop offset="1" stop-color="#3FC6C6"/>
</linearGradient>
<linearGradient id="paint13_linear" x1="708.98" y1="3.67342" x2="607.959" y2="12.2449" gradientUnits="userSpaceOnUse">
<stop stop-color="#16A5A5"/>
<stop offset="1" stop-color="#3FC6C6"/>
</linearGradient>
<linearGradient id="paint14_linear" x1="708.98" y1="3.67342" x2="607.959" y2="12.2449" gradientUnits="userSpaceOnUse">
<stop stop-color="#16A5A5"/>
<stop offset="1" stop-color="#3FC6C6"/>
</linearGradient>
<linearGradient id="paint15_linear" x1="251.02" y1="236.326" x2="352.041" y2="227.755" gradientUnits="userSpaceOnUse">
<stop stop-color="#16A5A5"/>
<stop offset="1" stop-color="#3FC6C6"/>
</linearGradient>
<linearGradient id="paint16_linear" x1="188.571" y1="557.143" x2="542.143" y2="527.143" gradientUnits="userSpaceOnUse">
<stop stop-color="#16A5A5"/>
<stop offset="1" stop-color="#3FC6C6"/>
</linearGradient>
<clipPath id="clip0">
<rect width="720" height="720" fill="white" transform="matrix(1 0 0 -1 0 720)"/>
</clipPath>
</defs>
</svg>
