<svg xmlns:xlink="http://www.w3.org/1999/xlink" xmlns="http://www.w3.org/2000/svg" class="MuiSvgIcon-root" focusable="false" viewBox="0 0 40 40" aria-hidden="true" style="width:40px;height:40px;fill:none" width="40"  height="40" ><path d="M36.8641 18.02C37.2785 18.6502 37.5 19.3142 37.5 20.0001C37.5 24.0794 29.665 27.3864 20 27.3864C10.335 27.3864 2.5 24.0794 2.5 20.0001C2.5 19.3142 2.72149 18.6502 3.13592 18.02M36.8641 26.8836C37.2785 27.5137 37.5 28.1778 37.5 28.8637C37.5 32.943 29.665 36.25 20 36.25C10.335 36.25 2.5 32.943 2.5 28.8637C2.5 28.1778 2.72149 27.5137 3.13592 26.8836M37.5 11.1364C37.5 15.2157 29.665 18.5227 20 18.5227C10.335 18.5227 2.5 15.2157 2.5 11.1364C2.5 7.05698 10.335 3.75 20 3.75C29.665 3.75 37.5 7.05698 37.5 11.1364Z" stroke="#C0A161" stroke-width="1.5px" stroke-linecap="round" fill="none"></path></svg>