<svg width="40" height="40" viewBox="0 0 40 40" fill="none" xmlns="http://www.w3.org/2000/svg">
<path d="M20.0933 28C19.6791 28 19.3433 28.3358 19.3433 28.75C19.3433 29.1643 19.6791 29.5 20.0933 29.5V28ZM20.2706 29.5C20.6848 29.5 21.0206 29.1643 21.0206 28.75C21.0206 28.3358 20.6848 28 20.2706 28V29.5ZM19.432 24.3098C19.432 24.724 19.7678 25.0598 20.182 25.0598C20.5962 25.0598 20.932 24.724 20.932 24.3098H19.432ZM14.2698 15.1236C14.1752 15.5269 14.4253 15.9305 14.8285 16.0252C15.2318 16.1199 15.6354 15.8698 15.7301 15.4665L14.2698 15.1236ZM20 37.9167C10.1049 37.9167 2.08331 29.8951 2.08331 20H0.583313C0.583313 30.7236 9.27645 39.4167 20 39.4167V37.9167ZM37.9166 20C37.9166 29.8951 29.8951 37.9167 20 37.9167V39.4167C30.7235 39.4167 39.4166 30.7236 39.4166 20H37.9166ZM20 2.08337C29.8951 2.08337 37.9166 10.1049 37.9166 20H39.4166C39.4166 9.27651 30.7235 0.583374 20 0.583374V2.08337ZM20 0.583374C9.27645 0.583374 0.583313 9.27651 0.583313 20H2.08331C2.08331 10.1049 10.1049 2.08337 20 2.08337V0.583374ZM20.0933 29.5H20.2706V28H20.0933V29.5ZM20.182 12C22.8267 12 24.75 13.5929 24.75 15.9516H26.25C26.25 12.54 23.4113 10.5 20.182 10.5V12ZM24.75 15.9516C24.75 16.6068 24.5077 17.1426 24.0844 17.6692C23.6412 18.2208 23.0439 18.7118 22.3548 19.2984C21.0388 20.4188 19.432 21.841 19.432 24.3098H20.932C20.932 22.5995 21.9842 21.5839 23.3272 20.4406C23.9676 19.8954 24.6998 19.298 25.2536 18.6089C25.8275 17.8948 26.25 17.0376 26.25 15.9516H24.75ZM15.7301 15.4665C16.1945 13.489 18.0049 12 20.182 12V10.5C17.3104 10.5 14.8938 12.4665 14.2698 15.1236L15.7301 15.4665Z" fill="#C0A161"/>
</svg>
