<svg xmlns:xlink="http://www.w3.org/1999/xlink" xmlns="http://www.w3.org/2000/svg" class="MuiSvgIcon-root" focusable="false" viewBox="0 0 40 40" aria-hidden="true" style="width: 40px; height: 40px; fill: none;" width="40"  height="40" ><path d="M6.66658 25.3333C6.66658 17.9695 12.6361 12 19.9999 12C27.3637 12 33.3333 17.9695 33.3333 25.3333C33.3333 32.6971 27.3637 38.6666 19.9999 38.6666C12.6361 38.6666 6.66658 32.6971 6.66658 25.3333Z" stroke="#C0A161" stroke-width="1.5px" stroke-linecap="round" stroke-linejoin="round" fill="none"></path><path d="M1.33325 14.6666C1.33325 7.30285 7.30279 1.33331 14.6666 1.33331C22.0304 1.33331 27.9999 7.30285 27.9999 14.6666C27.9999 22.0304 22.0304 28 14.6666 28C7.30279 28 1.33325 22.0304 1.33325 14.6666Z" stroke="#C0A161" stroke-width="1.5px" stroke-linecap="round" stroke-linejoin="round" fill="none"></path><path d="M11.9999 14.6666C11.9999 7.30285 17.9695 1.33331 25.3333 1.33331C32.697 1.33331 38.6666 7.30285 38.6666 14.6666C38.6666 22.0304 32.697 28 25.3333 28C17.9695 28 11.9999 22.0304 11.9999 14.6666Z" stroke="#C0A161" stroke-width="1.5px" stroke-linecap="round" stroke-linejoin="round" fill="none"></path></svg>