<svg xmlns:xlink="http://www.w3.org/1999/xlink" xmlns="http://www.w3.org/2000/svg" class="MuiSvgIcon-root" focusable="false" viewBox="0 0 40 40" aria-hidden="true" style="width: 40px; height: 40px; fill: none;" width="40"  height="40" ><path d="M25.3333 2.10632V6.66665C25.3333 8.13941 24.1393 9.33331 22.6666 9.33331H19.9999C18.5272 9.33331 17.3333 10.5272 17.3333 12C17.3333 13.4727 16.1393 14.6666 14.6666 14.6666H11.9999V17.3333L11.2189 18.1144C10.1775 19.1558 8.48903 19.1558 7.44763 18.1144L2.66659 13.3333M17.4999 37.5L17.3333 34.6666L14.6666 32V28L11.9999 25.3333V22.6666H22.6666C24.1393 22.6666 25.3333 23.8606 25.3333 25.3333V27.1111C25.3333 27.602 25.7312 28 26.2221 28C27.204 28 27.9999 28.7959 27.9999 29.7778C27.9999 30.2687 28.3979 30.6666 28.8888 30.6666H35.3207M19.9999 38.6666C9.6906 38.6666 1.33325 30.3093 1.33325 20C1.33325 9.69067 9.6906 1.33331 19.9999 1.33331C30.3092 1.33331 38.6666 9.69067 38.6666 20C38.6666 30.3093 30.3092 38.6666 19.9999 38.6666Z" stroke="#C0A161" stroke-width="1.5px" stroke-linecap="round" stroke-linejoin="round" fill="none"></path></svg>