<svg width="149" height="18" viewBox="0 0 149 18" fill="none" xmlns="http://www.w3.org/2000/svg">
<path d="M127.294 17.6957C127.403 17.8103 127.322 18 127.163 18H123.216C123.167 18 123.119 17.9796 123.085 17.9436L117.838 12.3935L112.534 17.9443C112.5 17.9799 112.453 18 112.404 18H108.457C108.298 18 108.217 17.8103 108.326 17.6957L115.559 10.1166L108.571 2.75189C108.462 2.6372 108.544 2.448 108.702 2.448H112.65C112.7 2.448 112.747 2.4685 112.782 2.50466L117.8 7.83964L122.838 2.50442C122.872 2.46841 122.92 2.448 122.969 2.448H126.918C127.076 2.448 127.157 2.6372 127.049 2.75189L120.061 10.1166L127.294 17.6957Z" fill="#B4CBCC"/>
<path d="M89.8704 17.9998C89.7324 17.9998 89.6206 17.8879 89.6206 17.7499V2.69843C89.6206 2.56044 89.7324 2.44857 89.8704 2.44857H104.784C104.922 2.44857 105.034 2.56044 105.034 2.69843V4.85086C105.034 4.98885 104.922 5.10071 104.784 5.10071H93.2371V8.56658H100.16C100.298 8.56658 100.41 8.67844 100.41 8.81643V10.9689C100.41 11.1069 100.298 11.2187 100.16 11.2187H93.2371V15.0764H104.935C105.072 15.0764 105.184 15.1882 105.184 15.3262V17.7499C105.184 17.8879 105.072 17.9998 104.935 17.9998H89.8704Z" fill="#B4CBCC"/>
<path d="M63.4627 17.9998C63.3247 17.9998 63.2129 17.8879 63.2129 17.7499V2.69843C63.2129 2.56044 63.3247 2.44857 63.4627 2.44857H66.5796C66.7176 2.44857 66.8294 2.56044 66.8294 2.69843V17.7499C66.8294 17.8879 66.7176 17.9998 66.5796 17.9998H63.4627Z" fill="#B4CBCC"/>
<path d="M45.7319 17.9998C45.5939 17.9998 45.482 17.8879 45.482 17.7499V2.69843C45.482 2.56044 45.5939 2.44857 45.7319 2.44857H60.4645C60.6025 2.44857 60.7143 2.56044 60.7143 2.69843V4.91113C60.7143 5.04913 60.6025 5.16099 60.4645 5.16099H49.0986V9.25975H55.3887C55.5266 9.25975 55.6385 9.37161 55.6385 9.50961V11.8429C55.6385 11.9809 55.5266 12.0927 55.3887 12.0927H49.0986V17.7499C49.0986 17.8879 48.9867 17.9998 48.8487 17.9998H45.7319Z" fill="#B4CBCC"/>
<path d="M36.0605 5.22127V17.7499C36.0605 17.8879 35.9486 17.9998 35.8107 17.9998H32.6938C32.5558 17.9998 32.444 17.8879 32.444 17.7499V5.22127H25.801C25.663 5.22127 25.5511 5.1094 25.5511 4.97141V2.69843C25.5511 2.56044 25.663 2.44857 25.801 2.44857H42.7336C42.8716 2.44857 42.9835 2.56044 42.9835 2.69843V4.97141C42.9835 5.1094 42.8716 5.22127 42.7336 5.22127H36.0605Z" fill="#B4CBCC"/>
<path d="M19.6859 17.9998C19.5479 17.9998 19.436 17.8879 19.436 17.7499V2.69843C19.436 2.56044 19.5479 2.44857 19.6859 2.44857H22.8027C22.9407 2.44857 23.0526 2.56044 23.0526 2.69843V17.7499C23.0526 17.8879 22.9407 17.9998 22.8027 17.9998H19.6859Z" fill="#B4CBCC"/>
<path fill-rule="evenodd" clip-rule="evenodd" d="M0 2.69843C0 2.56044 0.111864 2.44857 0.249856 2.44857H13.568C15.3618 2.44857 16.8161 3.90281 16.8161 5.6967V6.7348C16.8161 8.52869 15.3618 9.98293 13.568 9.98293H13.6893C15.4832 9.98293 16.9375 11.4372 16.9375 13.2311V14.7519C16.9375 16.5458 15.4832 18 13.6893 18H0.249856C0.111864 18 0 17.8881 0 17.7501V2.69843ZM3.55404 4.98073H11.9718C12.7997 4.98073 13.4709 5.65191 13.4709 6.47986V7.18807C13.4709 8.01602 12.7997 8.68721 11.9718 8.68721H3.55404V4.98073ZM3.55404 11.2476H12.0621C12.8901 11.2476 13.5613 11.9188 13.5613 12.7467V13.6977C13.5613 14.5257 12.8901 15.1968 12.0621 15.1968H3.55404V11.2476Z" fill="#B4CBCC"/>
<path d="M69.328 17.7499V2.69843C69.328 2.56044 69.4398 2.44857 69.5778 2.44857H71.7046C71.7656 2.44857 71.8245 2.4709 71.8702 2.51134L83.8671 13.1299L83.8671 2.69843C83.8671 2.56044 83.979 2.44857 84.117 2.44857H86.8721C87.0101 2.44857 87.122 2.56044 87.122 2.69843V17.7499C87.122 17.8879 87.0101 17.9998 86.8721 17.9998H84.7456C84.6845 17.9998 84.6254 17.9774 84.5797 17.9368L72.5829 7.2905L72.5829 17.7499C72.5829 17.8879 72.471 17.9998 72.333 17.9998H69.5778C69.4398 17.9998 69.328 17.8879 69.328 17.7499Z" fill="#B4CBCC"/>
<path d="M130.299 11.7377C130.142 9.18925 131.212 6.35656 133.417 4.15203C138.21 -0.641521 148.193 0.030378 148.25 0.034239C148.223 0.0737985 140.925 10.6548 132.277 11.6444C131.608 11.7209 130.948 11.751 130.299 11.7377Z" fill="#B4CBCC"/>
<path d="M131.312 14.9959C131.559 15.3896 131.851 15.7583 132.188 16.0959C135.148 19.0549 140.495 18.505 144.132 14.8676C148.94 10.0604 148.25 0.034239 148.25 0.034239C148.223 0.093648 142.992 11.82 134.678 14.3778C133.549 14.725 132.418 14.9272 131.312 14.9959Z" fill="#B4CBCC"/>
</svg>
