<svg width="250" height="130" viewBox="0 0 250 130" fill="none" xmlns="http://www.w3.org/2000/svg">
<rect width="250" height="130" rx="6" fill="white"/>
<g clip-path="url(#clip0_4514_32386)">
<path d="M123.438 69.3446C123.456 75.8585 118.854 81.4603 112.489 82.6733C106.124 83.8862 99.8027 80.366 97.4487 74.2973L102.576 69.1293V69.3446C102.575 72.8919 105.067 75.9458 108.527 76.6386C111.987 77.3314 115.452 75.4702 116.802 72.1933C118.153 68.9163 117.014 65.1363 114.081 63.165C111.148 61.1937 107.238 61.5801 104.743 64.088L89.9908 78.9206C86.1404 82.7962 80.3468 83.9573 75.3128 81.8623C70.2788 79.7673 66.9961 74.829 66.9961 69.351C66.9961 63.873 70.2788 58.9347 75.3128 56.8397C80.3468 54.7447 86.1404 55.9058 89.9908 59.7813C90.7515 60.5551 91.0437 61.6782 90.7575 62.7274C90.4713 63.7767 89.6501 64.5927 88.6033 64.8681C87.5564 65.1435 86.443 64.8365 85.6824 64.0626C82.7869 61.1614 78.1014 61.1669 75.2126 64.0748C72.3239 66.9827 72.3239 71.6939 75.2126 74.6018C78.1014 77.5097 82.7869 77.5152 85.6824 74.614L100.46 59.8446C104.306 55.9686 110.097 54.8064 115.129 56.9006C120.161 58.9948 123.441 63.9323 123.438 69.408V69.3446ZM181.905 69.3446C181.906 75.852 177.303 81.4398 170.944 82.651C164.585 83.8622 158.269 80.3542 155.903 74.2973L161.03 69.1293V69.3446C161.029 72.8919 163.521 75.9458 166.981 76.6386C170.441 77.3314 173.906 75.4702 175.256 72.1933C176.607 68.9163 175.467 65.1363 172.534 63.165C169.601 61.1937 165.692 61.5801 163.197 64.088L148.495 78.8446C144.661 82.7597 138.853 83.9542 133.798 81.8672C128.743 79.7802 125.445 74.8264 125.454 69.332V50.332C125.381 49.1967 125.942 48.115 126.909 47.5251C127.877 46.9353 129.09 46.9353 130.058 47.5251C131.025 48.115 131.586 49.1967 131.513 50.332V58.046C135.243 55.5763 139.947 55.1259 144.073 56.8436C148.199 58.5614 151.209 62.2237 152.111 66.6213L158.914 59.7813C162.764 55.9092 168.554 54.7494 173.586 56.8425C178.617 58.9355 181.901 63.8694 181.905 69.3446ZM146.328 69.3446C146.328 65.2312 143.012 61.8966 138.921 61.8966C134.83 61.8966 131.513 65.2312 131.513 69.3446C131.513 73.4581 134.83 76.7926 138.921 76.7926C140.886 76.796 142.772 76.0124 144.162 74.6149C145.552 73.2174 146.332 71.321 146.328 69.3446Z" fill="#B4CBCC"/>
</g>
<defs>
<clipPath id="clip0_4514_32386">
<rect width="115.9" height="38" fill="white" transform="translate(67 46)"/>
</clipPath>
</defs>
</svg>
