<svg width="250" height="130" viewBox="0 0 250 130" fill="none" xmlns="http://www.w3.org/2000/svg">
<rect width="250" height="130" rx="6" fill="white"/>
<g clip-path="url(#clip0_3351:26262)">
<path d="M82.4575 59.976C77.3353 59.976 73.333 63.8335 73.333 68.9975C73.333 74.1616 77.2342 77.9861 82.4575 77.9861C87.6808 77.9861 91.6498 74.0956 91.6498 68.9645C91.6498 63.8665 87.7487 59.976 82.4575 59.976ZM82.4921 74.2644C79.5752 74.2644 77.4377 72.017 77.4377 68.9988C77.4377 65.9463 79.5406 63.7002 82.4575 63.7002C85.409 63.7002 87.5452 65.9806 87.5452 68.9988C87.5452 72.017 85.409 74.2644 82.4921 74.2644ZM92.7685 63.9008H95.3129V77.6521H99.383V60.3112H92.7685V63.9008ZM63.0899 63.6989C65.2274 63.6989 66.9233 65.0067 67.567 66.952H71.8752C71.0945 62.7936 67.6349 59.976 63.1245 59.976C58.0023 59.976 54 63.8335 54 68.9988C54 74.1641 57.9012 77.9873 63.1245 77.9873C67.5338 77.9873 71.0612 75.1698 71.8419 70.9771H67.567C66.9565 72.9223 65.2606 74.2644 63.1232 74.2644C60.1717 74.2644 58.1034 72.017 58.1034 68.9988C58.1047 65.9463 60.1397 63.6989 63.0899 63.6989ZM170.103 67.3215L167.118 66.8859C165.694 66.6853 164.676 66.2155 164.676 65.1083C164.676 63.9008 166 63.2976 167.797 63.2976C169.764 63.2976 171.02 64.1357 171.291 65.5108H175.225C174.784 62.0228 172.07 59.9773 167.899 59.9773C163.591 59.9773 160.742 62.1574 160.742 65.2429C160.742 68.1938 162.608 69.9054 166.372 70.4412L169.357 70.8768C170.816 71.0774 171.63 71.6488 171.63 72.7217C171.63 74.0968 170.206 74.667 168.238 74.667C165.83 74.667 164.473 73.6943 164.269 72.2189H160.267C160.641 75.6066 163.32 77.9873 168.204 77.9873C172.648 77.9873 175.598 75.9748 175.598 72.5198C175.598 69.4343 173.462 67.8243 170.103 67.3215ZM97.348 53.1676C95.8556 53.1676 94.7357 54.2405 94.7357 55.716C94.7357 57.1914 95.8543 58.2644 97.348 58.2644C98.8404 58.2644 99.9603 57.1914 99.9603 55.716C99.9603 54.2405 98.8404 53.1676 97.348 53.1676ZM157.079 66.2485C157.079 62.4926 154.772 59.9773 149.888 59.9773C145.275 59.9773 142.698 62.292 142.188 65.8473H146.225C146.429 64.4722 147.514 63.3319 149.82 63.3319C151.89 63.3319 152.908 64.2373 152.908 65.3445C152.908 66.7869 151.041 67.1551 148.735 67.39C145.615 67.7252 141.748 68.7982 141.748 72.8233C141.748 75.943 144.089 77.9543 147.82 77.9543C150.737 77.9543 152.568 76.7468 153.485 74.8346C153.621 76.5449 154.909 77.6521 156.708 77.6521H159.082V74.0638H157.08V66.2485H157.079ZM153.077 70.6088C153.077 72.9236 151.041 74.6339 148.565 74.6339C147.038 74.6339 145.749 73.9965 145.749 72.6557C145.749 70.9453 147.819 70.4755 149.718 70.2749C151.55 70.1073 152.567 69.7048 153.077 68.9328V70.6088ZM131.47 59.976C129.197 59.976 127.298 60.9156 125.941 62.4914V53H121.871V77.6521H125.873V75.3717C127.23 77.0147 129.164 77.9873 131.47 77.9873C136.355 77.9873 140.052 74.1641 140.052 68.9988C140.052 63.8335 136.287 59.976 131.47 59.976ZM130.86 74.2644C127.943 74.2644 125.806 72.017 125.806 68.9988C125.806 65.9806 127.976 63.7002 130.893 63.7002C133.845 63.7002 135.913 65.9476 135.913 68.9988C135.913 72.017 133.777 74.2644 130.86 74.2644ZM112.136 59.976C109.49 59.976 107.76 61.0489 106.743 62.5587V60.3112H102.706V77.6509H106.776V68.2268C106.776 65.5768 108.472 63.6989 110.982 63.6989C113.323 63.6989 114.78 65.3419 114.78 67.724V77.6521H118.85V67.423C118.852 63.0615 116.58 59.976 112.136 59.976ZM195 68.4287C195 63.4652 191.337 59.9773 186.418 59.9773C181.195 59.9773 177.362 63.8678 177.362 68.9988C177.362 74.399 181.466 77.9873 186.486 77.9873C190.726 77.9873 194.05 75.505 194.898 71.984H190.657C190.047 73.5267 188.554 74.399 186.553 74.399C183.94 74.399 181.973 72.789 181.533 69.9714H194.999V68.4287H195ZM181.771 67.0866C182.416 64.6715 184.247 63.4983 186.35 63.4983C188.657 63.4983 190.42 64.8061 190.827 67.0866H181.771Z" fill="#B4CBCC"/>
</g>
<defs>
<clipPath id="clip0_3351:26262">
<rect width="141" height="24.9873" fill="white" transform="translate(54 53)"/>
</clipPath>
</defs>
</svg>
