<svg width="119" height="36" viewBox="0 0 119 36" fill="none" xmlns="http://www.w3.org/2000/svg">
<path d="M14.1228 17.716L13.8098 17.4021C13.5736 17.1665 13.1674 17.3334 13.1674 17.6676V22.1496C13.1674 22.3568 13.3372 22.5249 13.5452 22.5249H18.0338C18.3682 22.5249 18.5373 22.12 18.299 21.8841C18.2287 21.8137 18.1893 21.7183 18.1893 21.6189C18.1893 21.5195 18.2287 21.4241 18.299 21.3537L23.0735 16.5724C23.2201 16.4263 23.2201 16.1889 23.0735 16.0417L22.6386 15.6089C22.4023 15.3733 22.5708 14.9683 22.9045 14.9683H27.3906C27.598 14.9683 27.7676 15.1366 27.7676 15.3438V19.8259C27.7676 20.1598 27.3603 20.3274 27.124 20.0914L26.821 19.7895C26.6725 19.6388 26.4362 19.6388 26.2905 19.7895L18.2416 27.8244C18.0954 27.9701 17.8577 27.9701 17.7094 27.8244L7.86183 17.9892C7.82664 17.9543 7.79872 17.9129 7.77966 17.8672C7.7606 17.8215 7.75079 17.7725 7.75079 17.723C7.75079 17.6735 7.7606 17.6245 7.77966 17.5788C7.79872 17.5331 7.82664 17.4916 7.86183 17.4568L21.4945 3.84221C21.6404 3.6957 21.6404 3.45661 21.4945 3.31061L18.2889 0.109397C18.2181 0.0393177 18.1225 0 18.0228 0C17.9231 0 17.8274 0.0393177 17.7566 0.109397L0.1097 17.7353C-0.0365666 17.8818 -0.0365666 18.1209 0.1097 18.2669L17.7566 35.8908C17.903 36.0364 18.1431 36.0364 18.2889 35.8908L35.9352 18.2669C36.081 18.1203 36.081 17.8825 35.9352 17.7364L25.5533 7.3679C25.4081 7.22204 25.1693 7.22204 25.0222 7.3679L14.6558 17.7161C14.6209 17.7512 14.5794 17.7791 14.5337 17.7982C14.488 17.8172 14.4389 17.827 14.3894 17.827C14.3398 17.827 14.2907 17.8172 14.245 17.7982C14.1993 17.7791 14.1577 17.7511 14.1228 17.716ZM95.5815 22.1753C95.1265 22.1753 94.734 22.3382 94.405 22.6655C94.0802 22.9932 93.9143 23.38 93.9143 23.8279C93.9143 24.5107 94.2611 25.0418 94.9498 25.4213C95.7053 25.6272 96.3124 25.4932 96.7695 25.0262C97.0998 24.6966 97.2624 24.3013 97.2624 23.8408C97.2624 23.3746 97.0998 22.9849 96.7695 22.6657C96.4418 22.3403 96.0482 22.1778 95.5805 22.1778L95.5815 22.1753ZM68.7653 9.50692H67.5211C66.9837 9.50692 66.5466 9.94018 66.5466 10.4769V11.17C65.2231 9.79532 63.7245 9.10764 62.0508 9.10764C60.1179 9.10764 58.5051 9.82599 57.2191 11.2587C55.9295 12.6915 55.2872 14.4824 55.2872 16.6327C55.2872 18.8197 55.9295 20.6455 57.2154 22.1089C58.5155 23.5424 60.155 24.2589 62.1408 24.2589C63.7112 24.2589 65.1809 23.6185 66.5467 22.3411V23.7114C66.5467 24.3771 67.0885 24.9181 67.7541 24.9181H69.8784V10.6175C69.8784 10.0057 69.3791 9.50692 68.7653 9.50692ZM65.6209 20.0316C64.8638 20.876 63.8726 21.2975 62.6432 21.2975C61.4915 21.2975 60.5375 20.8611 59.7831 19.9882C59.0443 19.126 58.6759 18.0039 58.6759 16.6305C58.6759 15.3457 59.055 14.2636 59.8113 13.3911C60.5774 12.5266 61.5309 12.0968 62.6715 12.0968C63.8806 12.0968 64.862 12.5227 65.6191 13.3805C66.3764 14.2532 66.7551 15.3605 66.7551 16.7056C66.7551 18.0507 66.3764 19.1579 65.6191 20.0328L65.6209 20.0316ZM55.2861 11.9266V10.5087C55.2861 9.95522 54.8375 9.50936 54.283 9.50936H52.9718C52.4194 9.50936 51.97 9.95313 51.97 10.5087V11.1281C50.7707 9.78208 49.2671 9.10785 47.4588 9.10785C45.3951 9.10785 43.7322 9.88546 42.4752 11.4343C41.3053 12.8946 40.7207 14.6728 40.7207 16.7638C40.7207 18.9129 41.351 20.706 42.6096 22.1376C43.8579 23.5545 45.4592 24.2571 47.4154 24.2571C49.1333 24.2571 50.6528 23.5874 51.9699 22.2421V24.2445C51.9699 27.2198 50.7566 28.7075 48.3297 28.7075C47.0122 28.7075 46.0114 28.2596 45.3237 27.3657C45.1483 27.1395 45.0026 26.8565 44.8868 26.5183C44.7242 26.0449 44.2735 25.7301 43.7741 25.7301H42.5172C41.8833 25.7301 41.4122 26.3323 41.5726 26.9452C41.9163 28.2489 42.5801 29.3097 43.5685 30.1307C44.8066 31.1621 46.385 31.6789 48.3001 31.6789C50.5699 31.6789 52.3541 30.9308 53.6523 29.441C54.3401 28.6654 54.8003 27.7377 55.0368 26.658C55.1157 26.267 55.1774 25.8118 55.2208 25.2951C55.2642 24.7815 55.2856 24.1855 55.2856 23.5073V21.4237C54.3575 20.0871 53.8904 18.4905 53.8904 16.6311C53.8904 14.8042 54.3566 13.2394 55.2856 11.9281L55.2861 11.9266ZM51.0849 19.9186C50.3481 20.8378 49.3472 21.2974 48.0776 21.2974C46.8097 21.2974 45.8174 20.8407 45.0985 19.927C44.4414 19.0945 44.1123 18.0229 44.1123 16.7192C44.1123 15.3931 44.4413 14.3134 45.0985 13.4798C45.8276 12.5489 46.8188 12.0831 48.0776 12.0831C49.2563 12.0831 50.2248 12.5098 50.9807 13.3626C51.728 14.1962 52.103 15.3101 52.103 16.7058C52.103 18.0106 51.7628 19.0799 51.0847 19.9167L51.0849 19.9186ZM82.8594 9.5175V9.50699H75.9804V5.30067C75.9804 4.75978 75.5426 4.32126 74.9998 4.32126H73.657C73.109 4.32126 72.6645 4.76503 72.6645 5.3124V9.50706H71.2482V12.5965H72.6627V24.9163H74.5541C74.7412 24.9167 74.9266 24.8802 75.0996 24.8089C75.2726 24.7375 75.4297 24.6328 75.5621 24.5007C75.6944 24.3685 75.7993 24.2116 75.8708 24.0388C75.9422 23.8661 75.9788 23.6809 75.9784 23.4941V12.5986H79.3798C79.6466 12.0871 79.976 11.6107 80.3605 11.1805C81.0652 10.4135 81.8987 9.85767 82.8573 9.5175H82.8594ZM99.7845 4.32119C99.1963 4.32119 98.6905 4.53256 98.2675 4.95517C97.8463 5.37662 97.6326 5.87856 97.6326 6.45653C97.6326 7.06639 97.8445 7.57762 98.2675 8.00354C98.6905 8.42499 99.2027 8.63536 99.8014 8.63536C100.401 8.63536 100.906 8.42506 101.318 8.00231C101.74 7.57762 101.954 7.07057 101.954 6.47143C101.954 5.87432 101.742 5.36733 101.319 4.9574C100.894 4.53271 100.384 4.32119 99.7845 4.32119ZM100.456 11.1298H99.2534C98.6367 11.1298 98.1341 11.6286 98.1341 12.2477V22.7649C98.3879 23.0619 98.5086 23.4116 98.5086 23.8183C98.5086 24.225 98.3879 24.5789 98.1341 24.8781V25.4699H100.269C100.923 25.4699 101.452 24.9405 101.452 24.2863V12.1209C101.452 11.5735 101.006 11.1298 100.455 11.1298H100.456ZM116.045 13.1608C114.552 11.6993 112.733 10.9682 110.591 10.9682C108.458 10.9682 106.648 11.6931 105.165 13.148C103.682 14.5997 102.939 16.3622 102.939 18.433C102.939 20.6308 103.665 22.4566 105.121 23.9103C106.577 25.3812 108.381 26.1176 110.531 26.1176C112.702 26.1176 114.536 25.3969 116.031 23.9536C117.512 22.4987 118.257 20.7003 118.257 18.5503C118.257 16.4191 117.519 14.6229 116.045 13.1585V13.1608ZM113.699 21.9071C112.924 22.7428 111.888 23.156 110.591 23.156C109.301 23.156 108.265 22.7365 107.478 21.8901C106.712 21.0576 106.328 19.9208 106.328 18.4901C106.328 17.1567 106.724 16.0663 107.51 15.2231C108.295 14.3799 109.321 13.9561 110.591 13.9561C111.876 13.9561 112.914 14.3799 113.699 15.2231C114.476 16.0556 114.865 17.1715 114.865 18.562C114.865 19.9588 114.475 21.0702 113.699 21.9049V21.9071Z" fill="#B4CBCC"/>
<path d="M84.0953 21.3279C83.4116 20.6368 83.0299 19.6944 82.9419 18.5174H92.4488C92.8826 18.5174 93.2403 18.1708 93.2465 17.7387C93.2465 15.3688 92.637 13.5218 91.4194 12.1861C90.1891 10.8424 88.5173 10.1702 86.4056 10.1702C84.315 10.1702 82.6331 10.8633 81.3658 12.2455C80.1067 13.6506 79.4782 15.4848 79.4782 17.7523C79.4782 20.0389 80.1279 21.8751 81.4228 23.2573C82.3283 24.2187 83.4383 24.842 84.7553 25.1326C85.3077 25.2624 85.8811 25.33 86.4597 25.3215C88.8221 25.3703 90.8755 25.4188 93.237 25.4675L93.2404 25.1219C92.9513 24.8082 92.8064 24.43 92.8064 23.9881C92.8064 23.5593 92.9578 23.1905 93.2526 22.8715L93.2548 22.452C91.3907 22.4055 86.8775 22.3611 86.6978 22.3611C85.6398 22.3611 84.77 22.0198 84.0952 21.33L84.0953 21.3279ZM83.6338 14.7053C83.8425 14.3819 84.089 14.1051 84.3799 13.8748C84.6708 13.6413 84.9904 13.4668 85.3459 13.3444C85.6991 13.2218 86.0779 13.1604 86.4818 13.1604C88.2489 13.1604 89.3639 14.0427 89.8293 15.8084H83.1633C83.272 15.3972 83.4287 15.0297 83.6338 14.7053Z" fill="#B4CBCC"/>
</svg>
