<svg width="118" height="50" viewBox="0 0 118 50" fill="none" xmlns="http://www.w3.org/2000/svg">
<path d="M83.0375 10.4069L80.5287 20.1839L63.3286 22.4139L83.0375 10.4069Z" fill="#B4CBCC"/>
<path d="M87.6942 49.8452L91.9684 32.0876L86.4243 29.7957L87.6942 49.8452Z" fill="#B4CBCC"/>
<path d="M80.5289 20.1735L76.0172 29.4652L63.3804 22.4448L80.5289 20.1735Z" fill="#B4CBCC"/>
<path d="M87.6936 49.8451L86.4237 29.7956L75.9653 29.4342L87.6936 49.8451Z" fill="#B4CBCC"/>
<path d="M80.5292 20.1735L86.476 29.7853L76.0176 29.4343L80.5292 20.1735Z" fill="#B4CBCC"/>
<path d="M83.0376 10.4069L97.2747 12.1929L80.5288 20.1839L83.0376 10.4069Z" fill="#B4CBCC"/>
<path d="M112.844 5.95703L103.893 16.3638L104.522 6.74167L112.844 5.95703Z" fill="#B4CBCC"/>
<path d="M117.81 0L112.844 5.95706L116.726 6.43197L117.81 0Z" fill="#B4CBCC"/>
<path d="M108.022 11.3567L116.726 6.42169L112.844 5.94678L108.022 11.3567Z" fill="#B4CBCC"/>
<path d="M91.9684 32.0875L92.3917 20.1425L86.4243 29.7956L91.9684 32.0875Z" fill="#B4CBCC"/>
<path d="M92.3913 20.1425L86.4239 29.7956L80.5288 20.1838L92.3913 20.1425Z" fill="#B4CBCC"/>
<path d="M97.2747 12.193L92.3913 20.1426L80.5288 20.1839L97.2747 12.193Z" fill="#B4CBCC"/>
<path d="M92.3911 20.1425L91.9678 32.0875L102.891 43.2583L92.3911 20.1425Z" fill="#B4CBCC"/>
<path d="M108.6 37.0123L102.829 22.7133L102.891 43.2687L108.6 37.0123Z" fill="#B4CBCC"/>
<path d="M103.892 16.3638L102.829 22.7131L92.3911 20.1424L103.892 16.3638Z" fill="#B4CBCC"/>
<path d="M109.178 24.9743L102.829 22.7133L103.862 16.3743L109.178 24.9743Z" fill="#B4CBCC"/>
<path d="M111.502 36.6199L104.584 25.5317H108.539L111.502 36.6199Z" fill="#B4CBCC"/>
<path d="M98.5757 9.82863L103.893 16.3638L104.522 6.7417L98.5757 9.82863Z" fill="#B4CBCC"/>
<path d="M102.829 22.7132L92.3911 20.1425L102.891 43.2583L102.829 22.7132Z" fill="#B4CBCC"/>
<path d="M108.6 37.0122L110.903 38.3027L102.912 43.2583L108.6 37.0122Z" fill="#B4CBCC"/>
<path d="M111.501 36.4857L102.829 22.7133L108.6 37.0226L111.501 36.4857Z" fill="#B4CBCC"/>
<path d="M98.5754 9.82874L92.3809 20.1529L103.882 16.3743L98.5754 9.82874Z" fill="#B4CBCC"/>
<path d="M16.1985 40.1921L17.871 41.049L19.5538 40.1921V49.8452H16.1985V40.1921ZM15.9404 36.9296C15.9748 36.451 16.1971 36.0055 16.5588 35.6902C16.9205 35.375 17.3922 35.2156 17.871 35.2468C18.1141 35.2086 18.3626 35.2235 18.5993 35.2905C18.8361 35.3575 19.0555 35.475 19.2425 35.635C19.4296 35.7949 19.5797 35.9934 19.6827 36.2169C19.7856 36.4404 19.8389 36.6836 19.8389 36.9296C19.8389 37.1757 19.7856 37.4188 19.6827 37.6423C19.5797 37.8658 19.4296 38.0644 19.2425 38.2243C19.0555 38.3842 18.8361 38.5017 18.5993 38.5687C18.3626 38.6357 18.1141 38.6507 17.871 38.6125C17.6358 38.6308 17.3992 38.6026 17.1749 38.5295C16.9505 38.4564 16.7428 38.3398 16.5635 38.1865C16.3842 38.0331 16.2369 37.8458 16.13 37.6355C16.0231 37.4252 15.9586 37.1958 15.9404 36.9606V36.9296Z" fill="#B4CBCC"/>
<path d="M8.3213 35.1023V40.7496H3.65476V35.1023H0V49.8452H3.65476V44.1772H8.3213V49.8452H11.9761V35.1023H8.3213Z" fill="#B4CBCC"/>
<path d="M27.2659 49.8453H23.8899V42.5151H22.5787V39.3455H23.8899V35.8147H27.2659V39.3455H28.5771V42.5151H27.2659V49.8453Z" fill="#B4CBCC"/>
<path d="M35.6597 46.4589H38.6434C39.8101 46.4589 40.1714 45.7465 40.1714 45.1374C40.1714 44.5283 39.7894 43.8365 38.6434 43.8365H35.6597V46.4589ZM35.6597 40.7703H38.3853C38.5345 40.7922 38.6865 40.7844 38.8327 40.7475C38.9789 40.7105 39.1163 40.6451 39.2371 40.555C39.358 40.4648 39.4599 40.3517 39.5369 40.2221C39.614 40.0925 39.6647 39.949 39.6862 39.7998C39.6913 39.7448 39.6913 39.6895 39.6862 39.6346C39.6862 39.2423 39.4694 38.4989 38.375 38.4989H35.6597V40.7703ZM37.9827 35.1023C42.4324 35.1023 43.1448 37.7453 43.1448 39.0874C43.18 39.7303 43.0218 40.3689 42.6906 40.921C42.3593 41.4731 41.8702 41.9132 41.2864 42.1847C41.9901 42.3959 42.6011 42.8399 43.0194 43.4439C43.4377 44.0479 43.6385 44.7761 43.5887 45.5091C43.5887 47.8217 42.2569 49.8142 37.8485 49.8142H32.005V35.1023H37.9827Z" fill="#B4CBCC"/>
<path d="M53.0147 49.8452H49.3599V38.4886H45.509V35.1023H56.8656V38.4576H53.0147V49.8452Z" fill="#B4CBCC"/>
<path d="M72.0836 37.4354L69.7194 39.5726C68.8048 38.7682 67.6231 38.3338 66.4053 38.3543C65.892 38.342 65.3812 38.4311 64.9023 38.6165C64.4235 38.8019 63.9859 39.0801 63.6147 39.4349C63.2435 39.7898 62.946 40.2145 62.7393 40.6845C62.5325 41.1546 62.4206 41.6608 62.4099 42.1742C62.3995 42.2772 62.3995 42.381 62.4099 42.484C62.3791 42.9958 62.4496 43.5087 62.6172 43.9934C62.7848 44.478 63.0462 44.9248 63.3866 45.3084C63.727 45.6919 64.1396 46.0046 64.6009 46.2285C65.0622 46.4525 65.5631 46.5834 66.075 46.6137H66.4053C67.6195 46.6457 68.8018 46.2221 69.7194 45.4264L72.0836 47.5635C71.3525 48.3342 70.4718 48.9478 69.4955 49.3667C68.5192 49.7857 67.4677 50.0011 66.4053 50C64.4174 50 62.511 49.2103 61.1053 47.8046C59.6997 46.399 58.91 44.4925 58.91 42.5046C58.91 40.5167 59.6997 38.6103 61.1053 37.2046C62.511 35.7989 64.4174 35.0093 66.4053 35.0093C67.4674 35.0038 68.5194 35.2162 69.4961 35.6335C70.4728 36.0509 71.3535 36.6641 72.0836 37.4354Z" fill="#B4CBCC"/>
</svg>
