<svg width="148" height="22" viewBox="0 0 148 22" fill="none" xmlns="http://www.w3.org/2000/svg">
<path d="M9.35263 6.77633C9.35263 3.62031 7.82451 0.899809 6.65911 0.0108731C6.65911 0.0108731 6.56992 -0.042821 6.58181 0.0884312C6.47478 6.21552 3.37694 7.84424 1.67045 10.0696C-0.927934 13.2793 -0.440366 17.9865 2.75261 20.5876C3.45424 21.1604 4.25694 21.6019 5.1191 21.8823C7.20613 22.4669 4.63154 20.8561 4.30451 17.4495C3.90613 13.3091 9.35263 10.1889 9.35263 6.77633Z" fill="#B4CBCC"/>
<path d="M11.3942 8.87689C11.3764 8.85303 11.3467 8.84706 11.3229 8.85899C11.3169 8.86496 11.311 8.87092 11.305 8.87689C10.9126 10.2968 10.2467 11.6332 9.34287 12.7966C5.75746 17.9094 7.80882 20.3734 8.95639 21.662C9.61639 22.4317 8.95639 21.662 10.6272 20.8745C12.6369 19.747 13.9748 17.7125 14.2126 15.4156C14.3969 12.9039 13.3445 10.4638 11.3942 8.87689Z" fill="#B4CBCC"/>
<path d="M73.5204 8.4276C74.4333 8.4276 75.1733 7.68504 75.1733 6.76905C75.1733 5.85306 74.4333 5.1105 73.5204 5.1105C72.6076 5.1105 71.8675 5.85306 71.8675 6.76905C71.8675 7.68504 72.6076 8.4276 73.5204 8.4276Z" fill="#B4CBCC"/>
<path d="M27.8562 5.13057V11.5381H21.5177V5.96581C21.5177 5.50643 21.1431 5.13057 20.6853 5.13057H18.5329V20.4453C18.5269 20.9047 18.8956 21.2806 19.3534 21.2865H21.5594V14.1333H27.8918V20.4513C27.8918 20.9107 28.2664 21.2865 28.7243 21.2865H30.8648V5.96581C30.8648 5.50643 30.4902 5.13057 30.0324 5.13057H27.8562ZM40.426 9.13376V16.812C40.4319 17.51 40.0692 18.1603 39.4746 18.5243C38.4459 19.1924 37.0724 18.8941 36.4124 17.862C36.1865 17.51 36.0616 17.0984 36.0616 16.6808V9.969C36.0616 9.50962 35.687 9.13376 35.2292 9.13376H33.0886V16.9433C33.1005 19.4609 35.1281 21.4953 37.6373 21.5073H38.8503C41.3595 21.4953 43.3871 19.4609 43.3989 16.9433V9.969C43.3989 9.50962 43.0243 9.13376 42.5665 9.13376H40.426Z" fill="#B4CBCC"/>
<path d="M72.8679 21.2843H75.0086V10.4082C75.0086 9.94886 74.6339 9.573 74.1761 9.573H72.0473V20.4371C72.0414 20.9025 72.41 21.2783 72.8679 21.2843Z" fill="#B4CBCC"/>
<path d="M51.0706 9.12554C48.0857 8.98832 45.5587 11.3031 45.4219 14.2921C45.4219 14.3398 45.416 14.3935 45.416 14.4413V16.1237C45.4635 19.1126 47.9252 21.499 50.9041 21.4453C50.9576 21.4453 51.0171 21.4453 51.0706 21.4394C54.0495 21.5826 56.5766 19.2737 56.7193 16.2907C56.7193 16.237 56.7252 16.1774 56.7252 16.1237V14.4413C56.6717 11.4463 54.2041 9.06588 51.2192 9.11957C51.1657 9.11957 51.1182 9.12554 51.0706 9.12554ZM53.7165 16.3683C53.7165 17.8538 52.5155 19.053 51.0409 19.053C49.5663 19.053 48.3652 17.8478 48.3652 16.3683V14.2682C48.3652 12.7827 49.5663 11.5835 51.0409 11.5835C52.5155 11.5835 53.7165 12.7887 53.7165 14.2682V16.3683Z" fill="#B4CBCC"/>
<path d="M64.3857 9.12582C63.47 9.12582 62.5603 9.33463 61.7338 9.74032V5.98173C61.7338 5.52235 61.3592 5.14649 60.9013 5.14649H58.7311V16.1717C58.7786 19.1606 61.2403 21.5471 64.2192 21.4934C64.2727 21.4934 64.3322 21.4934 64.3857 21.4874C67.3646 21.6306 69.8916 19.3217 70.0343 16.3387C70.0343 16.285 70.0403 16.2254 70.0403 16.1717V14.4893C70.0106 11.4943 67.5668 9.09002 64.5759 9.11985C64.5105 9.11985 64.4511 9.11985 64.3857 9.12582ZM67.0376 16.3686C67.0376 17.8541 65.8365 19.0533 64.3619 19.0533C62.8813 19.0533 61.6862 17.8481 61.6862 16.3686V14.2685C61.6862 12.783 62.8873 11.5838 64.3619 11.5838C65.8424 11.5838 67.0376 12.7889 67.0376 14.2685V16.3686Z" fill="#B4CBCC"/>
<path d="M122.063 8.97688C121.148 8.97688 120.238 9.18569 119.411 9.59137V5.83279C119.411 5.37341 119.037 4.99755 118.579 4.99755H116.438V16.0227C116.486 19.0117 118.948 21.3981 121.926 21.3444C121.98 21.3444 122.039 21.3444 122.093 21.3384C125.072 21.4816 127.599 19.1728 127.742 16.1898C127.742 16.1361 127.748 16.0764 127.748 16.0227V14.3403C127.718 11.3454 125.274 8.94108 122.289 8.97091C122.218 8.97091 122.14 8.97091 122.063 8.97688ZM124.715 16.2136C124.715 17.6992 123.514 18.8983 122.039 18.8983C120.559 18.8983 119.364 17.6932 119.364 16.2136V14.1136C119.364 12.6281 120.565 11.4289 122.039 11.4289C123.52 11.4289 124.715 12.634 124.715 14.1136V16.2136ZM94.1943 11.596H88.391V13.1829C88.391 13.6721 88.7894 14.0718 89.277 14.0718H92.0359V15.4739C92.0776 16.3091 91.7862 17.1264 91.2213 17.7409C89.824 19.0594 87.6597 19.1251 86.1851 17.8901C85.4002 17.1205 85.2337 16.2793 85.2337 13.165C85.2337 10.0508 85.4002 9.22745 86.1851 8.45783C86.9283 7.82544 87.8619 7.47344 88.837 7.45554C92.0062 7.45554 93.0705 8.58312 93.8614 9.60927H93.9684V7.36009C93.9684 7.01406 93.8138 6.68593 93.5462 6.47115C92.2203 5.4092 90.8943 5.01545 88.617 5.01545C86.8748 4.96175 85.1862 5.58222 83.8899 6.75155C82.124 8.32658 82.124 10.1223 82.124 13.0696V13.3022C82.124 16.2554 82.124 18.0452 83.8899 19.6202C86.6548 21.9947 90.7516 21.947 93.457 19.5069C94.5868 18.4151 95.0446 16.327 95.0446 14.1912V12.4193C95.0089 11.9718 94.6462 11.6139 94.1943 11.596ZM102.768 21.2848V19.4055C102.768 18.958 102.406 18.6 101.966 18.6H100.473C99.2544 18.6 99.3138 17.9855 99.3138 16.4046V5.76716C99.3138 5.31971 98.9511 4.96175 98.5111 4.96175H96.323V16.7744C96.323 19.6262 97.0544 21.2967 100.122 21.2967H102.774L102.768 21.2848ZM147.381 21.3563V19.4711C147.399 19.0236 147.06 18.6478 146.614 18.6299C146.608 18.6299 146.608 18.6299 146.602 18.6299H145.11C143.891 18.6299 143.95 18.0154 143.95 16.4344V5.86262C143.95 5.41517 143.588 5.05721 143.148 5.05721H140.96V16.852C140.96 19.7038 141.691 21.3742 144.759 21.3742H147.411L147.381 21.3563ZM109.499 8.95898C106.514 8.82176 103.987 11.1366 103.851 14.1255C103.851 14.1733 103.845 14.227 103.845 14.2747V15.969C103.892 18.958 106.354 21.3444 109.333 21.2907C109.386 21.2907 109.446 21.2907 109.499 21.2848C112.478 21.4279 115.005 19.1191 115.148 16.1361C115.148 16.0824 115.154 16.0227 115.154 15.969V14.2866C115.106 11.2917 112.645 8.90528 109.66 8.95301C109.606 8.95301 109.553 8.95301 109.499 8.95898ZM112.151 16.1957C112.151 17.6813 110.95 18.8804 109.476 18.8804C107.995 18.8804 106.8 17.6753 106.8 16.1957V14.0838C106.8 12.5982 108.001 11.3991 109.476 11.3991C110.956 11.3991 112.151 12.6042 112.151 14.0838V16.1957ZM138.07 10.0448C136.946 9.26921 135.596 8.88739 134.235 8.97091C133.587 8.97091 132.932 9.01864 132.29 9.10216C131.749 9.17375 130.994 9.28114 130.471 9.3945C130.257 9.44819 130.215 9.61524 130.215 9.81212V11.417C130.215 11.7033 130.215 11.9658 130.524 11.8883C131.089 11.7451 132.183 11.5065 132.475 11.4528C132.98 11.3752 133.485 11.3334 133.997 11.3394C134.657 11.2917 135.323 11.4468 135.894 11.7809C136.345 12.1687 136.571 12.7653 136.494 13.3559V13.4454H134.71C134.021 13.4454 133.331 13.523 132.659 13.6841C132.035 13.8332 131.434 14.0897 130.893 14.4358C130.388 14.7639 129.965 15.1994 129.656 15.7185C129.347 16.2554 129.192 16.8699 129.198 17.4904C129.181 18.1049 129.317 18.7134 129.585 19.2623C129.846 19.7515 130.233 20.1691 130.697 20.4793C131.238 20.8194 131.838 21.0521 132.463 21.1595C133.188 21.3026 133.925 21.3683 134.663 21.3623C135.245 21.3623 139.479 21.3027 139.479 19.2861V13.4514C139.574 12.1687 139.051 10.9039 138.07 10.0448ZM136.458 15.7722V18.8804C136.227 18.9222 135.971 18.958 135.697 18.9878C135.031 19.0535 134.365 19.0535 133.7 18.9878C133.438 18.964 133.176 18.8924 132.938 18.7731C132.718 18.6597 132.528 18.4986 132.391 18.2958C132.231 18.0273 132.159 17.7171 132.177 17.4068C132.142 16.8878 132.385 16.3867 132.82 16.1063C133.462 15.7602 134.187 15.6051 134.912 15.6528H135.798L136.458 15.7722Z" fill="#B4CBCC"/>
</svg>
