<svg width="131" height="21" viewBox="0 0 131 21" fill="none" xmlns="http://www.w3.org/2000/svg">
<path d="M12.2279 0.0287453C14.4988 -0.124104 16.8134 0.334438 18.8441 1.36071C21.8574 2.84553 24.2593 5.50948 25.3729 8.6538C25.8752 10.0513 26.1372 11.5143 26.1372 12.9991V18.4798C26.1372 18.6982 26.1372 18.9384 26.0935 19.1567C25.9625 19.7026 25.5695 20.2048 25.0454 20.445C24.6742 20.6197 24.2593 20.6415 23.8881 20.576C23.0584 20.4232 22.4033 19.6371 22.4033 18.7855C22.4033 17.0823 22.4033 15.3792 22.4033 13.676C22.4251 13.1956 22.4251 12.6716 22.1631 12.2567C21.7482 11.4706 20.7001 11.0994 19.8922 11.4269C19.1935 11.6671 18.6913 12.3877 18.6694 13.1301C18.6694 14.8551 18.6694 16.5801 18.6694 18.3051C18.6694 18.6327 18.6913 18.9602 18.5821 19.2659C18.4074 19.8773 17.9052 20.3577 17.2938 20.5324C16.4859 20.7507 15.5688 20.4014 15.1757 19.6589C14.8919 19.2222 14.9137 18.6763 14.9355 18.1741C14.9355 16.4491 14.9355 14.7459 14.9355 13.0209C14.9137 12.1475 14.1931 11.3614 13.3415 11.2522C12.7738 11.1649 12.1843 11.3614 11.7694 11.7545C11.3982 12.1038 11.2017 12.606 11.2017 13.1083V18.1086C11.2017 18.5235 11.2453 18.9602 11.0925 19.3532C10.8523 20.0738 10.1317 20.5979 9.36747 20.576C8.58138 20.6197 7.81714 20.0738 7.57695 19.3532C7.44593 18.982 7.46777 18.6108 7.46777 18.2178C7.46777 16.4928 7.46777 14.7678 7.46777 13.0428C7.46777 12.1912 6.79087 11.4051 5.96111 11.2522C5.19687 11.0994 4.36712 11.4706 3.97408 12.1693C3.82123 12.4532 3.73388 12.7807 3.73388 13.1083V18.72C3.73388 19.2659 3.49369 19.8118 3.07882 20.1612C2.44559 20.707 1.41931 20.7507 0.764245 20.2485C0.283863 19.921 0 19.3532 0 18.7637V13.0864C0 10.9465 0.54589 8.80665 1.57216 6.90696C2.40191 5.35663 3.5592 3.98098 4.93484 2.8892C6.96555 1.18603 9.56399 0.181594 12.2279 0.0287453Z" fill="#B4CBCC"/>
<path d="M63.2588 6.60044H60.4201C60.5293 4.61341 60.9442 2.82289 62.7565 1.68744C64.5689 0.573821 66.5559 0.311794 68.6303 0.486479C69.7439 0.573821 70.8575 0.814015 71.8838 1.2944C73.6962 2.12415 74.5914 3.54346 74.5914 5.5305C74.5914 9.04603 74.5914 12.5616 74.5914 16.0771C74.5914 17.3654 74.8535 17.6056 76.1418 17.4746C76.2728 17.4527 76.4256 17.4309 76.5566 17.4091C76.5785 17.4746 76.5785 17.5401 76.5785 17.5838V19.7236C75.5522 20.073 74.5041 20.1822 73.4778 19.8983C72.7136 19.68 72.2332 19.1341 71.9712 18.4135C71.8401 18.0423 71.7528 17.6493 71.6436 17.2344C71.5344 17.3654 71.4471 17.4746 71.3379 17.5838C69.0889 19.8547 66.4249 20.8154 63.2806 20.0075C61.0534 19.4398 59.5249 17.4091 59.4594 15.0945C59.4375 14.3521 59.503 13.6097 59.6777 12.8891C60.0926 11.2296 61.2717 10.2252 62.7565 9.54825C63.8046 9.06787 64.9401 8.93685 66.0755 8.784C67.4075 8.60932 68.7177 8.45647 70.0496 8.25995C70.9449 8.12894 71.4034 7.64856 71.5344 6.7533C71.8183 4.94094 71.0104 3.73999 69.2635 3.30328C68.2154 3.04125 67.1455 2.99758 66.0755 3.1941C64.5034 3.47796 63.63 4.37322 63.3243 5.92355C63.3461 6.1419 63.3024 6.36025 63.2588 6.60044ZM71.6218 10.0941C70.3117 10.7929 69.0452 10.9676 67.7569 11.1641C66.6869 11.3388 65.5952 11.4916 64.5471 11.8192C63.1714 12.2777 62.5382 13.4132 62.6692 14.9416C62.7784 16.2081 63.63 17.2344 65.0056 17.4527C67.1237 17.8021 69.0015 17.2125 70.4863 15.6404C70.923 15.1818 71.2724 14.5268 71.3598 13.9154C71.5563 12.6926 71.5344 11.4479 71.6218 10.0941ZM112.083 13.7625C112.018 14.0682 111.974 14.3302 111.908 14.5704C110.686 18.3043 108.196 19.8983 105.183 20.2477C99.9644 20.8154 96.9729 17.4091 96.2087 13.7844C95.5973 10.9021 95.6846 8.0416 96.9511 5.33398C98.152 2.77922 100.074 1.09788 102.934 0.595657C106.362 -0.01574 111.21 1.68744 112.018 7.03716C112.236 8.4128 112.28 9.83212 112.411 11.2733H99.1346C99.2438 13.2385 99.5495 15.0727 100.991 16.492C101.58 17.0815 102.344 17.3654 103.174 17.5182C105.86 17.9986 108.087 16.7103 108.961 14.1119C109.048 13.828 109.179 13.7407 109.463 13.7625C110.314 13.7625 111.166 13.7625 112.083 13.7625ZM99.2438 8.74034H109.179C109.07 7.58305 108.873 6.5131 108.327 5.50867C107.803 4.5479 107.039 3.84916 105.991 3.49979C102.563 2.32067 99.0254 5.05012 99.2438 8.74034ZM119.223 19.6145H116.21V0.879523H119.071V3.49979C119.289 3.2596 119.42 3.10675 119.551 2.9539C121.603 0.617496 124.18 0.00609698 127.106 0.726672C129.137 1.22889 130.272 2.67004 130.665 4.67892C130.818 5.50867 130.927 6.36026 130.927 7.19001C130.949 11.2078 130.949 15.2255 130.949 19.2433C130.949 19.3524 130.927 19.4616 130.927 19.5926H127.848V19.0904C127.848 15.3347 127.87 11.579 127.827 7.82324C127.827 6.99349 127.696 6.1419 127.455 5.33398C127.062 4.02385 126.014 3.32511 124.639 3.2596C122.127 3.17226 120.14 4.50423 119.529 6.73146C119.311 7.53938 119.245 8.39096 119.245 9.24255C119.223 12.5397 119.223 15.8151 119.223 19.0686V19.6145ZM79.5044 0.879523H82.4086V8.82768C82.5832 8.65299 82.6924 8.56565 82.8016 8.45647C85.1817 6.03272 87.5618 3.58713 89.9418 1.16338C90.1384 0.945027 90.3349 0.857686 90.6406 0.857686C91.7542 0.879522 92.8896 0.857686 94.1124 0.857686C93.9378 1.03237 93.8504 1.14155 93.7412 1.25072C91.645 3.34694 89.5706 5.465 87.4526 7.53938C87.2124 7.77957 87.2124 7.93242 87.3652 8.19445C89.658 11.841 91.9289 15.4875 94.1998 19.1341C94.2871 19.2651 94.3526 19.3961 94.4618 19.5926C94.309 19.6145 94.1998 19.6145 94.0688 19.6145C93.0207 19.6145 91.9944 19.6145 90.9463 19.6145C90.6624 19.6145 90.5314 19.5053 90.3786 19.2869C88.6317 16.361 86.8849 13.435 85.138 10.4872C85.0507 10.3562 84.9852 10.2252 84.876 10.0723C84.0681 10.8802 83.282 11.6445 82.4959 12.4524C82.3867 12.5616 82.3649 12.7581 82.3649 12.9109C82.3649 14.9635 82.3649 17.016 82.3649 19.0686V19.5926C81.7972 19.5926 81.2294 19.5926 80.6836 19.5926C80.2905 19.5926 79.7446 19.7018 79.5263 19.4834C79.3298 19.3088 79.4389 18.741 79.4389 18.348V1.38174C79.5044 1.27256 79.5044 1.09788 79.5044 0.879523ZM45.9868 0.857686C43.6286 3.19409 41.3358 5.48683 39.0213 7.77957C41.5105 11.7537 43.9343 15.6404 46.4017 19.6145C46.2052 19.6145 46.0742 19.6363 45.9431 19.6363C44.9387 19.6363 43.9124 19.6363 42.908 19.6363C42.6241 19.6363 42.4494 19.5271 42.2966 19.2869C40.5497 16.361 38.8029 13.435 37.0561 10.4872C36.9905 10.3562 36.9032 10.247 36.794 10.0723C36.3573 10.5309 35.9643 11.0331 35.4839 11.3824C34.5013 12.1249 34.2174 13.0419 34.2829 14.2647C34.3921 15.8587 34.3048 17.4746 34.3048 19.0686V19.5926H31.4225V0.879523H34.3048V8.69666C34.3703 8.74033 34.4358 8.78401 34.4795 8.82768C34.5668 8.69666 34.6105 8.54382 34.6978 8.43464C37.0561 6.01089 39.4361 3.60897 41.7944 1.16338C42.0127 0.945027 42.2093 0.835851 42.5368 0.857686C43.5194 0.879522 44.502 0.857686 45.4846 0.857686C45.6374 0.857686 45.7685 0.857686 45.9868 0.857686ZM51.7514 3.98017C53.2144 1.84029 54.7647 0.0497721 57.647 0.573826V3.78365C56.8828 3.82733 56.1185 3.80549 55.3979 3.95834C53.6293 4.32955 52.2536 5.94538 51.9698 7.91058C51.9261 8.30362 51.8824 8.69667 51.8824 9.08971C51.8824 12.4306 51.8824 15.7714 51.8824 19.1122V19.6363H48.9128V0.923191H51.7514C51.7514 1.90579 51.7514 2.88839 51.7514 3.98017Z" fill="#B4CBCC"/>
</svg>
